solid Exported from Blender-2.80 (sub 75)
facet normal 0.048152 -0.148189 -0.987786
outer loop
vertex 0.000000 0.000000 -1.155767
vertex 0.040636 -0.029524 -1.149357
vertex -0.015521 -0.047771 -1.149357
endloop
endfacet
facet normal 0.722991 -0.412073 -0.554509
outer loop
vertex 0.144721 -0.105145 -1.045211
vertex 0.121909 -0.088571 -1.087271
vertex 0.162546 -0.059048 -1.056227
endloop
endfacet
facet normal -0.126063 -0.091585 -0.987786
outer loop
vertex 0.000000 0.000000 -1.155767
vertex -0.015521 -0.047771 -1.149357
vertex -0.050229 0.000000 -1.149357
endloop
endfacet
facet normal -0.126063 0.091585 -0.987786
outer loop
vertex 0.000000 0.000000 -1.155767
vertex -0.050229 0.000000 -1.149357
vertex -0.015521 0.047771 -1.149357
endloop
endfacet
facet normal 0.048152 0.148189 -0.987786
outer loop
vertex 0.000000 0.000000 -1.155767
vertex -0.015521 0.047771 -1.149357
vertex 0.040636 0.029524 -1.149357
endloop
endfacet
facet normal 0.819295 -0.412073 -0.398688
outer loop
vertex 0.144721 -0.105145 -1.045211
vertex 0.162546 -0.059048 -1.056227
vertex 0.172140 -0.088572 -1.005997
endloop
endfacet
facet normal -0.138727 -0.906533 -0.398689
outer loop
vertex -0.055278 -0.170130 -1.045211
vertex -0.005928 -0.172837 -1.056227
vertex -0.031043 -0.191084 -1.005997
endloop
endfacet
facet normal -0.905035 -0.148194 -0.398685
outer loop
vertex -0.178885 0.000000 -1.045210
vertex -0.166210 -0.047771 -1.056227
vertex -0.191325 -0.029524 -1.005997
endloop
endfacet
facet normal -0.420609 0.814945 -0.398689
outer loop
vertex -0.055278 0.170130 -1.045211
vertex -0.096794 0.143313 -1.056227
vertex -0.087201 0.172838 -1.005998
endloop
endfacet
facet normal 0.645086 0.651852 -0.398689
outer loop
vertex 0.144721 0.105145 -1.045211
vertex 0.106388 0.136342 -1.056227
vertex 0.137432 0.136343 -1.005998
endloop
endfacet
facet normal 0.771146 -0.560263 -0.302388
outer loop
vertex 0.144721 -0.105145 -1.045211
vertex 0.172140 -0.088572 -1.005997
vertex 0.137432 -0.136343 -1.005998
endloop
endfacet
facet normal -0.294548 -0.906533 -0.302389
outer loop
vertex -0.055278 -0.170130 -1.045211
vertex -0.031043 -0.191084 -1.005997
vertex -0.087201 -0.172838 -1.005998
endloop
endfacet
facet normal -0.953185 0.000000 -0.302387
outer loop
vertex -0.178885 0.000000 -1.045210
vertex -0.191325 -0.029524 -1.005997
vertex -0.191325 0.029524 -1.005997
endloop
endfacet
facet normal -0.294548 0.906533 -0.302389
outer loop
vertex -0.055278 0.170130 -1.045211
vertex -0.087201 0.172838 -1.005998
vertex -0.031043 0.191084 -1.005997
endloop
endfacet
facet normal 0.771146 0.560263 -0.302388
outer loop
vertex 0.144721 0.105145 -1.045211
vertex 0.137432 0.136343 -1.005998
vertex 0.172140 0.088572 -1.005997
endloop
endfacet
facet normal 0.888267 0.452590 -0.078388
outer loop
vertex 0.172140 0.088572 -1.005997
vertex 0.161804 0.117556 -0.955767
vertex 0.190212 0.061803 -0.955767
endloop
endfacet
facet normal 0.797217 0.579208 -0.170186
outer loop
vertex 0.172140 0.088572 -1.005997
vertex 0.137432 0.136343 -1.005998
vertex 0.161804 0.117556 -0.955767
endloop
endfacet
facet normal 0.704933 0.704930 -0.078388
outer loop
vertex 0.137432 0.136343 -1.005998
vertex 0.117557 0.161803 -0.955767
vertex 0.161804 0.117556 -0.955767
endloop
endfacet
facet normal -0.155953 0.984649 -0.078389
outer loop
vertex -0.031043 0.191084 -1.005997
vertex -0.061803 0.190211 -0.955767
vertex 0.000000 0.200000 -0.955767
endloop
endfacet
facet normal -0.304507 0.937183 -0.170186
outer loop
vertex -0.031043 0.191084 -1.005997
vertex -0.087201 0.172838 -1.005998
vertex -0.061803 0.190211 -0.955767
endloop
endfacet
facet normal -0.452594 0.888265 -0.078389
outer loop
vertex -0.087201 0.172838 -1.005998
vertex -0.117557 0.161803 -0.955767
vertex -0.061803 0.190211 -0.955767
endloop
endfacet
facet normal -0.984649 0.155952 -0.078389
outer loop
vertex -0.191325 0.029524 -1.005997
vertex -0.200000 -0.000000 -0.955767
vertex -0.190212 0.061803 -0.955767
endloop
endfacet
facet normal -0.985412 0.000000 -0.170184
outer loop
vertex -0.191325 0.029524 -1.005997
vertex -0.191325 -0.029524 -1.005997
vertex -0.200000 -0.000000 -0.955767
endloop
endfacet
facet normal -0.984649 -0.155951 -0.078389
outer loop
vertex -0.191325 -0.029524 -1.005997
vertex -0.190212 -0.061803 -0.955767
vertex -0.200000 -0.000000 -0.955767
endloop
endfacet
facet normal -0.452594 -0.888265 -0.078390
outer loop
vertex -0.087201 -0.172838 -1.005998
vertex -0.061803 -0.190211 -0.955767
vertex -0.117557 -0.161803 -0.955767
endloop
endfacet
facet normal -0.304506 -0.937183 -0.170186
outer loop
vertex -0.087201 -0.172838 -1.005998
vertex -0.031043 -0.191084 -1.005997
vertex -0.061803 -0.190211 -0.955767
endloop
endfacet
facet normal -0.155953 -0.984649 -0.078389
outer loop
vertex -0.031043 -0.191084 -1.005997
vertex 0.000000 -0.200000 -0.955767
vertex -0.061803 -0.190211 -0.955767
endloop
endfacet
facet normal 0.704932 -0.704930 -0.078389
outer loop
vertex 0.137432 -0.136343 -1.005998
vertex 0.161804 -0.117557 -0.955768
vertex 0.117557 -0.161803 -0.955767
endloop
endfacet
facet normal 0.797217 -0.579207 -0.170188
outer loop
vertex 0.137432 -0.136343 -1.005998
vertex 0.172140 -0.088572 -1.005997
vertex 0.161804 -0.117557 -0.955768
endloop
endfacet
facet normal 0.888267 -0.452589 -0.078388
outer loop
vertex 0.172140 -0.088572 -1.005997
vertex 0.190212 -0.061803 -0.955767
vertex 0.161804 -0.117557 -0.955768
endloop
endfacet
facet normal 0.891008 -0.453987 0.000000
outer loop
vertex 0.190212 -0.061803 -0.955767
vertex 0.161803 -0.117557 0.955766
vertex 0.161804 -0.117557 -0.955768
endloop
endfacet
facet normal 0.453991 -0.891006 0.000000
outer loop
vertex 0.061803 -0.190211 -0.955767
vertex 0.117556 -0.161803 0.955766
vertex 0.061802 -0.190211 0.955766
endloop
endfacet
facet normal 0.579060 0.796382 -0.174546
outer loop
vertex 0.137432 0.136343 -1.005998
vertex 0.089443 0.170130 -1.011047
vertex 0.117557 0.161803 -0.955767
endloop
endfacet
facet normal -0.156434 0.987688 -0.000000
outer loop
vertex 0.000000 0.200000 -0.955767
vertex -0.061804 0.190211 0.955766
vertex -0.000001 0.200000 0.955766
endloop
endfacet
facet normal 0.453991 0.891006 0.000000
outer loop
vertex 0.061803 0.190211 -0.955767
vertex 0.117556 0.161803 0.955766
vertex 0.117557 0.161803 -0.955767
endloop
endfacet
facet normal 0.451885 0.886870 -0.096236
outer loop
vertex 0.117557 0.161803 -0.955767
vertex 0.089443 0.170130 -1.011047
vertex 0.061803 0.190211 -0.955767
endloop
endfacet
facet normal 0.303534 0.934171 -0.187594
outer loop
vertex 0.089443 0.170130 -1.011047
vertex 0.027640 0.190211 -1.011047
vertex 0.061803 0.190211 -0.955767
endloop
endfacet
facet normal 0.155709 0.983104 -0.096236
outer loop
vertex 0.061803 0.190211 -0.955767
vertex 0.027640 0.190211 -1.011047
vertex 0.000000 0.200000 -0.955767
endloop
endfacet
facet normal -0.000363 0.984649 -0.174546
outer loop
vertex 0.027640 0.190211 -1.011047
vertex -0.031043 0.191084 -1.005997
vertex 0.000000 0.200000 -0.955767
endloop
endfacet
facet normal 0.563838 0.748767 -0.348476
outer loop
vertex 0.137432 0.136343 -1.005998
vertex 0.106388 0.136342 -1.056227
vertex 0.089443 0.170130 -1.011047
endloop
endfacet
facet normal 0.415084 0.796378 -0.439872
outer loop
vertex 0.106388 0.136342 -1.056227
vertex 0.052574 0.161802 -1.060915
vertex 0.089443 0.170130 -1.011047
endloop
endfacet
facet normal 0.288164 0.886868 -0.361147
outer loop
vertex 0.089443 0.170130 -1.011047
vertex 0.052574 0.161802 -1.060915
vertex 0.027640 0.190211 -1.011047
endloop
endfacet
facet normal 0.132300 0.888262 -0.439872
outer loop
vertex 0.052574 0.161802 -1.060915
vertex -0.005928 0.172837 -1.056227
vertex 0.027640 0.190211 -1.011047
endloop
endfacet
facet normal -0.016034 0.937181 -0.348476
outer loop
vertex 0.027640 0.190211 -1.011047
vertex -0.005928 0.172837 -1.056227
vertex -0.031043 0.191084 -1.005997
endloop
endfacet
facet normal -0.138727 0.906533 -0.398689
outer loop
vertex -0.005928 0.172837 -1.056227
vertex -0.055278 0.170130 -1.045211
vertex -0.031043 0.191084 -1.005997
endloop
endfacet
facet normal -0.453991 -0.891006 -0.000000
outer loop
vertex -0.117557 -0.161803 -0.955767
vertex -0.061805 -0.190211 0.955766
vertex -0.117558 -0.161803 0.955766
endloop
endfacet
facet normal -0.453990 0.891007 -0.000000
outer loop
vertex -0.117557 0.161803 -0.955767
vertex -0.061804 0.190211 0.955766
vertex -0.061803 0.190211 -0.955767
endloop
endfacet
facet normal -0.578465 0.796813 -0.174546
outer loop
vertex -0.087201 0.172838 -1.005998
vertex -0.134164 0.137638 -1.011047
vertex -0.117557 0.161803 -0.955767
endloop
endfacet
facet normal 0.156435 0.987688 0.000000
outer loop
vertex 0.000000 0.200000 -0.955767
vertex 0.061802 0.190211 0.955766
vertex 0.061803 0.190211 -0.955767
endloop
endfacet
facet normal -0.891008 -0.453987 -0.000001
outer loop
vertex -0.161804 -0.117557 -0.955767
vertex -0.190213 -0.061803 0.955766
vertex -0.190212 -0.061803 -0.955767
endloop
endfacet
facet normal -0.703825 0.703824 -0.096236
outer loop
vertex -0.117557 0.161803 -0.955767
vertex -0.134164 0.137638 -1.011047
vertex -0.161804 0.117557 -0.955767
endloop
endfacet
facet normal -0.794654 0.577350 -0.187595
outer loop
vertex -0.134164 0.137638 -1.011047
vertex -0.172361 0.085065 -1.011046
vertex -0.161804 0.117557 -0.955767
endloop
endfacet
facet normal -0.886873 0.451880 -0.096235
outer loop
vertex -0.161804 0.117557 -0.955767
vertex -0.172361 0.085065 -1.011046
vertex -0.190212 0.061803 -0.955767
endloop
endfacet
facet normal -0.936570 0.303924 -0.174546
outer loop
vertex -0.172361 0.085065 -1.011046
vertex -0.191325 0.029524 -1.005997
vertex -0.190212 0.061803 -0.955767
endloop
endfacet
facet normal -0.537885 0.767622 -0.348476
outer loop
vertex -0.087201 0.172838 -1.005998
vertex -0.096794 0.143313 -1.056227
vertex -0.134164 0.137638 -1.011047
endloop
endfacet
facet normal -0.629137 0.640858 -0.439872
outer loop
vertex -0.096794 0.143313 -1.056227
vertex -0.137638 0.099999 -1.060914
vertex -0.134164 0.137638 -1.011047
endloop
endfacet
facet normal -0.754417 0.548115 -0.361144
outer loop
vertex -0.134164 0.137638 -1.011047
vertex -0.137638 0.099999 -1.060914
vertex -0.172361 0.085065 -1.011046
endloop
endfacet
facet normal -0.803908 0.400307 -0.439870
outer loop
vertex -0.137638 0.099999 -1.060914
vertex -0.166210 0.047771 -1.056227
vertex -0.172361 0.085065 -1.011046
endloop
endfacet
facet normal -0.896270 0.274349 -0.348472
outer loop
vertex -0.172361 0.085065 -1.011046
vertex -0.166210 0.047771 -1.056227
vertex -0.191325 0.029524 -1.005997
endloop
endfacet
facet normal -0.905035 0.148193 -0.398685
outer loop
vertex -0.166210 0.047771 -1.056227
vertex -0.178885 0.000000 -1.045210
vertex -0.191325 0.029524 -1.005997
endloop
endfacet
facet normal -0.156435 -0.987688 -0.000000
outer loop
vertex 0.000000 -0.200000 -0.955767
vertex -0.061805 -0.190211 0.955766
vertex -0.061803 -0.190211 -0.955767
endloop
endfacet
facet normal -0.707108 -0.707106 -0.000000
outer loop
vertex -0.117557 -0.161803 -0.955767
vertex -0.161805 -0.117557 0.955766
vertex -0.161804 -0.117557 -0.955767
endloop
endfacet
facet normal -0.936570 -0.303924 -0.174546
outer loop
vertex -0.191325 -0.029524 -1.005997
vertex -0.172361 -0.085065 -1.011046
vertex -0.190212 -0.061803 -0.955767
endloop
endfacet
facet normal 0.987689 -0.156432 0.000001
outer loop
vertex 0.200000 0.000000 -0.955767
vertex 0.190211 -0.061803 0.955766
vertex 0.190212 -0.061803 -0.955767
endloop
endfacet
facet normal 0.891009 0.453986 0.000001
outer loop
vertex 0.161804 0.117556 -0.955767
vertex 0.190211 0.061802 0.955766
vertex 0.190212 0.061803 -0.955767
endloop
endfacet
facet normal -0.886873 -0.451880 -0.096235
outer loop
vertex -0.190212 -0.061803 -0.955767
vertex -0.172361 -0.085065 -1.011046
vertex -0.161804 -0.117557 -0.955767
endloop
endfacet
facet normal -0.794653 -0.577351 -0.187595
outer loop
vertex -0.172361 -0.085065 -1.011046
vertex -0.134164 -0.137638 -1.011047
vertex -0.161804 -0.117557 -0.955767
endloop
endfacet
facet normal -0.703825 -0.703824 -0.096236
outer loop
vertex -0.161804 -0.117557 -0.955767
vertex -0.134164 -0.137638 -1.011047
vertex -0.117557 -0.161803 -0.955767
endloop
endfacet
facet normal -0.578465 -0.796813 -0.174546
outer loop
vertex -0.134164 -0.137638 -1.011047
vertex -0.087201 -0.172838 -1.005998
vertex -0.117557 -0.161803 -0.955767
endloop
endfacet
facet normal -0.896270 -0.274350 -0.348472
outer loop
vertex -0.191325 -0.029524 -1.005997
vertex -0.166210 -0.047771 -1.056227
vertex -0.172361 -0.085065 -1.011046
endloop
endfacet
facet normal -0.803908 -0.400307 -0.439870
outer loop
vertex -0.166210 -0.047771 -1.056227
vertex -0.137638 -0.099999 -1.060914
vertex -0.172361 -0.085065 -1.011046
endloop
endfacet
facet normal -0.754418 -0.548114 -0.361143
outer loop
vertex -0.172361 -0.085065 -1.011046
vertex -0.137638 -0.099999 -1.060914
vertex -0.134164 -0.137638 -1.011047
endloop
endfacet
facet normal -0.629137 -0.640858 -0.439872
outer loop
vertex -0.137638 -0.099999 -1.060914
vertex -0.096794 -0.143313 -1.056227
vertex -0.134164 -0.137638 -1.011047
endloop
endfacet
facet normal -0.537885 -0.767622 -0.348476
outer loop
vertex -0.134164 -0.137638 -1.011047
vertex -0.096794 -0.143313 -1.056227
vertex -0.087201 -0.172838 -1.005998
endloop
endfacet
facet normal -0.420609 -0.814945 -0.398689
outer loop
vertex -0.096794 -0.143313 -1.056227
vertex -0.055278 -0.170130 -1.045211
vertex -0.087201 -0.172838 -1.005998
endloop
endfacet
facet normal 0.987689 0.156432 0.000001
outer loop
vertex 0.190212 0.061803 -0.955767
vertex 0.199999 -0.000000 0.955766
vertex 0.200000 0.000000 -0.955767
endloop
endfacet
facet normal -0.987689 0.156432 -0.000001
outer loop
vertex -0.200000 -0.000000 -0.955767
vertex -0.190213 0.061802 0.955766
vertex -0.190212 0.061803 -0.955767
endloop
endfacet
facet normal -0.000363 -0.984649 -0.174546
outer loop
vertex -0.031043 -0.191084 -1.005997
vertex 0.027640 -0.190211 -1.011047
vertex 0.000000 -0.200000 -0.955767
endloop
endfacet
facet normal 0.707108 0.707105 0.000000
outer loop
vertex 0.117557 0.161803 -0.955767
vertex 0.161803 0.117556 0.955766
vertex 0.161804 0.117556 -0.955767
endloop
endfacet
facet normal -0.707108 0.707106 -0.000000
outer loop
vertex -0.161804 0.117557 -0.955767
vertex -0.117558 0.161803 0.955766
vertex -0.117557 0.161803 -0.955767
endloop
endfacet
facet normal 0.155708 -0.983104 -0.096236
outer loop
vertex 0.000000 -0.200000 -0.955767
vertex 0.027640 -0.190211 -1.011047
vertex 0.061803 -0.190211 -0.955767
endloop
endfacet
facet normal 0.303534 -0.934171 -0.187595
outer loop
vertex 0.027640 -0.190211 -1.011047
vertex 0.089443 -0.170130 -1.011047
vertex 0.061803 -0.190211 -0.955767
endloop
endfacet
facet normal 0.451884 -0.886870 -0.096236
outer loop
vertex 0.061803 -0.190211 -0.955767
vertex 0.089443 -0.170130 -1.011047
vertex 0.117557 -0.161803 -0.955767
endloop
endfacet
facet normal 0.579060 -0.796381 -0.174546
outer loop
vertex 0.089443 -0.170130 -1.011047
vertex 0.137432 -0.136343 -1.005998
vertex 0.117557 -0.161803 -0.955767
endloop
endfacet
facet normal -0.016034 -0.937181 -0.348476
outer loop
vertex -0.031043 -0.191084 -1.005997
vertex -0.005928 -0.172837 -1.056227
vertex 0.027640 -0.190211 -1.011047
endloop
endfacet
facet normal 0.132300 -0.888262 -0.439872
outer loop
vertex -0.005928 -0.172837 -1.056227
vertex 0.052574 -0.161802 -1.060915
vertex 0.027640 -0.190211 -1.011047
endloop
endfacet
facet normal 0.288164 -0.886868 -0.361146
outer loop
vertex 0.027640 -0.190211 -1.011047
vertex 0.052574 -0.161802 -1.060915
vertex 0.089443 -0.170130 -1.011047
endloop
endfacet
facet normal 0.415085 -0.796378 -0.439872
outer loop
vertex 0.052574 -0.161802 -1.060915
vertex 0.106388 -0.136342 -1.056227
vertex 0.089443 -0.170130 -1.011047
endloop
endfacet
facet normal 0.563838 -0.748767 -0.348476
outer loop
vertex 0.089443 -0.170130 -1.011047
vertex 0.106388 -0.136342 -1.056227
vertex 0.137432 -0.136343 -1.005998
endloop
endfacet
facet normal 0.645086 -0.651852 -0.398689
outer loop
vertex 0.106388 -0.136342 -1.056227
vertex 0.144721 -0.105145 -1.045211
vertex 0.137432 -0.136343 -1.005998
endloop
endfacet
facet normal 0.707108 -0.707106 0.000000
outer loop
vertex 0.117557 -0.161803 -0.955767
vertex 0.161803 -0.117557 0.955766
vertex 0.117556 -0.161803 0.955766
endloop
endfacet
facet normal -0.987689 -0.156433 -0.000001
outer loop
vertex -0.200000 -0.000000 -0.955767
vertex -0.190213 -0.061803 0.955766
vertex -0.200001 -0.000000 0.955766
endloop
endfacet
facet normal 0.936345 -0.304617 -0.174544
outer loop
vertex 0.172140 -0.088572 -1.005997
vertex 0.189443 -0.032492 -1.011046
vertex 0.190212 -0.061803 -0.955767
endloop
endfacet
facet normal -0.891008 0.453987 -0.000000
outer loop
vertex -0.190212 0.061803 -0.955767
vertex -0.161805 0.117557 0.955766
vertex -0.161804 0.117557 -0.955767
endloop
endfacet
facet normal 0.156435 -0.987688 0.000000
outer loop
vertex 0.000000 -0.200000 -0.955767
vertex 0.061802 -0.190211 0.955766
vertex -0.000001 -0.200000 0.955766
endloop
endfacet
facet normal 0.983104 -0.155707 -0.096236
outer loop
vertex 0.190212 -0.061803 -0.955767
vertex 0.189443 -0.032492 -1.011046
vertex 0.200000 0.000000 -0.955767
endloop
endfacet
facet normal 0.982247 0.000000 -0.187593
outer loop
vertex 0.189443 -0.032492 -1.011046
vertex 0.189443 0.032492 -1.011046
vertex 0.200000 0.000000 -0.955767
endloop
endfacet
facet normal 0.983104 0.155707 -0.096236
outer loop
vertex 0.200000 0.000000 -0.955767
vertex 0.189443 0.032492 -1.011046
vertex 0.190212 0.061803 -0.955767
endloop
endfacet
facet normal 0.936345 0.304617 -0.174544
outer loop
vertex 0.189443 0.032492 -1.011046
vertex 0.172140 0.088572 -1.005997
vertex 0.190212 0.061803 -0.955767
endloop
endfacet
facet normal 0.886357 -0.304854 -0.348476
outer loop
vertex 0.172140 -0.088572 -1.005997
vertex 0.162546 -0.059048 -1.056227
vertex 0.189443 -0.032492 -1.011046
endloop
endfacet
facet normal 0.885670 -0.148667 -0.439871
outer loop
vertex 0.162546 -0.059048 -1.056227
vertex 0.170130 -0.000000 -1.060914
vertex 0.189443 -0.032492 -1.011046
endloop
endfacet
facet normal 0.932509 0.000000 -0.361146
outer loop
vertex 0.189443 -0.032492 -1.011046
vertex 0.170130 -0.000000 -1.060914
vertex 0.189443 0.032492 -1.011046
endloop
endfacet
facet normal 0.885670 0.148667 -0.439871
outer loop
vertex 0.170130 -0.000000 -1.060914
vertex 0.162546 0.059048 -1.056227
vertex 0.189443 0.032492 -1.011046
endloop
endfacet
facet normal 0.886357 0.304854 -0.348476
outer loop
vertex 0.189443 0.032492 -1.011046
vertex 0.162546 0.059048 -1.056227
vertex 0.172140 0.088572 -1.005997
endloop
endfacet
facet normal 0.819295 0.412073 -0.398688
outer loop
vertex 0.162546 0.059048 -1.056227
vertex 0.144721 0.105145 -1.045211
vertex 0.172140 0.088572 -1.005997
endloop
endfacet
facet normal 0.615328 0.560261 -0.554508
outer loop
vertex 0.121909 0.088571 -1.087271
vertex 0.106388 0.136342 -1.056227
vertex 0.144721 0.105145 -1.045211
endloop
endfacet
facet normal 0.467353 0.452588 -0.759438
outer loop
vertex 0.085065 0.061802 -1.125898
vertex 0.072361 0.117556 -1.100489
vertex 0.121909 0.088571 -1.087271
endloop
endfacet
facet normal 0.262728 0.303923 -0.915754
outer loop
vertex 0.040636 0.029524 -1.149357
vertex 0.027639 0.085064 -1.134653
vertex 0.085065 0.061802 -1.125898
endloop
endfacet
facet normal 0.508741 0.579205 -0.636949
outer loop
vertex 0.121909 0.088571 -1.087271
vertex 0.072361 0.117556 -1.100489
vertex 0.106388 0.136342 -1.056227
endloop
endfacet
facet normal 0.385368 0.704924 -0.595460
outer loop
vertex 0.072361 0.117556 -1.100489
vertex 0.052574 0.161802 -1.060915
vertex 0.106388 0.136342 -1.056227
endloop
endfacet
facet normal 0.310547 0.451878 -0.836282
outer loop
vertex 0.085065 0.061802 -1.125898
vertex 0.027639 0.085064 -1.134653
vertex 0.072361 0.117556 -1.100489
endloop
endfacet
facet normal 0.187594 0.577345 -0.794658
outer loop
vertex 0.027639 0.085064 -1.134653
vertex 0.010558 0.137637 -1.100489
vertex 0.072361 0.117556 -1.100489
endloop
endfacet
facet normal 0.228688 0.703819 -0.672563
outer loop
vertex 0.072361 0.117556 -1.100489
vertex 0.010558 0.137637 -1.100489
vertex 0.052574 0.161802 -1.060915
endloop
endfacet
facet normal 0.102585 0.796808 -0.595460
outer loop
vertex 0.010558 0.137637 -1.100489
vertex -0.005928 0.172837 -1.056227
vertex 0.052574 0.161802 -1.060915
endloop
endfacet
facet normal 0.089142 0.274352 -0.957489
outer loop
vertex 0.040636 0.029524 -1.149357
vertex -0.015521 0.047771 -1.149357
vertex 0.027639 0.085064 -1.134653
endloop
endfacet
facet normal -0.033903 0.400306 -0.915754
outer loop
vertex -0.015521 0.047771 -1.149357
vertex -0.032491 0.099999 -1.125898
vertex 0.027639 0.085064 -1.134653
endloop
endfacet
facet normal 0.014376 0.548113 -0.836281
outer loop
vertex 0.027639 0.085064 -1.134653
vertex -0.032491 0.099999 -1.125898
vertex 0.010558 0.137637 -1.100489
endloop
endfacet
facet normal -0.112063 0.640855 -0.759438
outer loop
vertex -0.032491 0.099999 -1.125898
vertex -0.046564 0.143313 -1.087271
vertex 0.010558 0.137637 -1.100489
endloop
endfacet
facet normal -0.071126 0.767619 -0.636947
outer loop
vertex 0.010558 0.137637 -1.100489
vertex -0.046564 0.143313 -1.087271
vertex -0.005928 0.172837 -1.056227
endloop
endfacet
facet normal -0.168484 0.814944 -0.554509
outer loop
vertex -0.046564 0.143313 -1.087271
vertex -0.055278 0.170130 -1.045211
vertex -0.005928 0.172837 -1.056227
endloop
endfacet
facet normal -0.342697 0.758340 -0.554509
outer loop
vertex -0.046564 0.143313 -1.087271
vertex -0.096794 0.143313 -1.056227
vertex -0.055278 0.170130 -1.045211
endloop
endfacet
facet normal -0.286022 0.584334 -0.759437
outer loop
vertex -0.032491 0.099999 -1.125898
vertex -0.089442 0.105145 -1.100489
vertex -0.046564 0.143313 -1.087271
endloop
endfacet
facet normal -0.207861 0.343785 -0.915754
outer loop
vertex -0.015521 0.047771 -1.149357
vertex -0.072360 0.052573 -1.134653
vertex -0.032491 0.099999 -1.125898
endloop
endfacet
facet normal -0.393647 0.662826 -0.636949
outer loop
vertex -0.046564 0.143313 -1.087271
vertex -0.089442 0.105145 -1.100489
vertex -0.096794 0.143313 -1.056227
endloop
endfacet
facet normal -0.551343 0.584336 -0.595459
outer loop
vertex -0.089442 0.105145 -1.100489
vertex -0.137638 0.099999 -1.060914
vertex -0.096794 0.143313 -1.056227
endloop
endfacet
facet normal -0.333801 0.434984 -0.836281
outer loop
vertex -0.032491 0.099999 -1.125898
vertex -0.072360 0.052573 -1.134653
vertex -0.089442 0.105145 -1.100489
endloop
endfacet
facet normal -0.491121 0.356819 -0.794658
outer loop
vertex -0.072360 0.052573 -1.134653
vertex -0.127639 0.052573 -1.100489
vertex -0.089442 0.105145 -1.100489
endloop
endfacet
facet normal -0.598707 0.434985 -0.672561
outer loop
vertex -0.089442 0.105145 -1.100489
vertex -0.127639 0.052573 -1.100489
vertex -0.137638 0.099999 -1.060914
endloop
endfacet
facet normal -0.726112 0.343788 -0.595459
outer loop
vertex -0.127639 0.052573 -1.100489
vertex -0.166210 0.047771 -1.056227
vertex -0.137638 0.099999 -1.060914
endloop
endfacet
facet normal -0.233379 0.169557 -0.957489
outer loop
vertex -0.015521 0.047771 -1.149357
vertex -0.050229 0.000000 -1.149357
vertex -0.072360 0.052573 -1.134653
endloop
endfacet
facet normal -0.391195 0.091450 -0.915753
outer loop
vertex -0.050229 0.000000 -1.149357
vertex -0.105146 0.000000 -1.125897
vertex -0.072360 0.052573 -1.134653
endloop
endfacet
facet normal -0.516844 0.183045 -0.836281
outer loop
vertex -0.072360 0.052573 -1.134653
vertex -0.105146 0.000000 -1.125897
vertex -0.127639 0.052573 -1.100489
endloop
endfacet
facet normal -0.644127 0.091449 -0.759432
outer loop
vertex -0.105146 0.000000 -1.125897
vertex -0.150688 0.000000 -1.087270
vertex -0.127639 0.052573 -1.100489
endloop
endfacet
facet normal -0.752030 0.169559 -0.636947
outer loop
vertex -0.127639 0.052573 -1.100489
vertex -0.150688 0.000000 -1.087270
vertex -0.166210 0.047771 -1.056227
endloop
endfacet
facet normal -0.827127 0.091586 -0.554503
outer loop
vertex -0.150688 0.000000 -1.087270
vertex -0.178885 0.000000 -1.045210
vertex -0.166210 0.047771 -1.056227
endloop
endfacet
facet normal -0.827127 -0.091586 -0.554503
outer loop
vertex -0.150688 0.000000 -1.087270
vertex -0.166210 -0.047771 -1.056227
vertex -0.178885 0.000000 -1.045210
endloop
endfacet
facet normal -0.644125 -0.091451 -0.759434
outer loop
vertex -0.105146 0.000000 -1.125897
vertex -0.127639 -0.052573 -1.100489
vertex -0.150688 0.000000 -1.087270
endloop
endfacet
facet normal -0.391195 -0.091451 -0.915753
outer loop
vertex -0.050229 0.000000 -1.149357
vertex -0.072360 -0.052573 -1.134653
vertex -0.105146 0.000000 -1.125897
endloop
endfacet
facet normal -0.752029 -0.169559 -0.636947
outer loop
vertex -0.150688 0.000000 -1.087270
vertex -0.127639 -0.052573 -1.100489
vertex -0.166210 -0.047771 -1.056227
endloop
endfacet
facet normal -0.726113 -0.343787 -0.595459
outer loop
vertex -0.127639 -0.052573 -1.100489
vertex -0.137638 -0.099999 -1.060914
vertex -0.166210 -0.047771 -1.056227
endloop
endfacet
facet normal -0.516844 -0.183046 -0.836281
outer loop
vertex -0.105146 0.000000 -1.125897
vertex -0.072360 -0.052573 -1.134653
vertex -0.127639 -0.052573 -1.100489
endloop
endfacet
facet normal -0.491121 -0.356820 -0.794657
outer loop
vertex -0.072360 -0.052573 -1.134653
vertex -0.089442 -0.105146 -1.100489
vertex -0.127639 -0.052573 -1.100489
endloop
endfacet
facet normal -0.598707 -0.434986 -0.672560
outer loop
vertex -0.127639 -0.052573 -1.100489
vertex -0.089442 -0.105146 -1.100489
vertex -0.137638 -0.099999 -1.060914
endloop
endfacet
facet normal -0.551343 -0.584337 -0.595460
outer loop
vertex -0.089442 -0.105146 -1.100489
vertex -0.096794 -0.143313 -1.056227
vertex -0.137638 -0.099999 -1.060914
endloop
endfacet
facet normal -0.233380 -0.169558 -0.957488
outer loop
vertex -0.050229 0.000000 -1.149357
vertex -0.015521 -0.047771 -1.149357
vertex -0.072360 -0.052573 -1.134653
endloop
endfacet
facet normal -0.207864 -0.343785 -0.915753
outer loop
vertex -0.015521 -0.047771 -1.149357
vertex -0.032491 -0.099999 -1.125898
vertex -0.072360 -0.052573 -1.134653
endloop
endfacet
facet normal -0.333801 -0.434986 -0.836280
outer loop
vertex -0.072360 -0.052573 -1.134653
vertex -0.032491 -0.099999 -1.125898
vertex -0.089442 -0.105146 -1.100489
endloop
endfacet
facet normal -0.286022 -0.584334 -0.759437
outer loop
vertex -0.032491 -0.099999 -1.125898
vertex -0.046564 -0.143313 -1.087271
vertex -0.089442 -0.105146 -1.100489
endloop
endfacet
facet normal -0.393648 -0.662826 -0.636948
outer loop
vertex -0.089442 -0.105146 -1.100489
vertex -0.046564 -0.143313 -1.087271
vertex -0.096794 -0.143313 -1.056227
endloop
endfacet
facet normal -0.342697 -0.758340 -0.554509
outer loop
vertex -0.046564 -0.143313 -1.087271
vertex -0.055278 -0.170130 -1.045211
vertex -0.096794 -0.143313 -1.056227
endloop
endfacet
facet normal 0.722991 0.412073 -0.554509
outer loop
vertex 0.162546 0.059048 -1.056227
vertex 0.121909 0.088571 -1.087271
vertex 0.144721 0.105145 -1.045211
endloop
endfacet
facet normal 0.789511 0.148666 -0.595458
outer loop
vertex 0.170130 -0.000000 -1.060914
vertex 0.134163 0.032491 -1.100489
vertex 0.162546 0.059048 -1.056227
endloop
endfacet
facet normal 0.789512 -0.148666 -0.595457
outer loop
vertex 0.162546 -0.059048 -1.056227
vertex 0.134164 -0.032492 -1.100489
vertex 0.170130 -0.000000 -1.060914
endloop
endfacet
facet normal 0.708072 0.304853 -0.636945
outer loop
vertex 0.162546 0.059048 -1.056227
vertex 0.134163 0.032491 -1.100489
vertex 0.121909 0.088571 -1.087271
endloop
endfacet
facet normal 0.574858 0.304618 -0.759439
outer loop
vertex 0.134163 0.032491 -1.100489
vertex 0.085065 0.061802 -1.125898
vertex 0.121909 0.088571 -1.087271
endloop
endfacet
facet normal 0.740040 0.000000 -0.672562
outer loop
vertex 0.170130 -0.000000 -1.060914
vertex 0.134164 -0.032492 -1.100489
vertex 0.134163 0.032491 -1.100489
endloop
endfacet
facet normal 0.607061 -0.000000 -0.794655
outer loop
vertex 0.134164 -0.032492 -1.100489
vertex 0.089442 -0.000000 -1.134653
vertex 0.134163 0.032491 -1.100489
endloop
endfacet
facet normal 0.525730 0.155707 -0.836279
outer loop
vertex 0.134163 0.032491 -1.100489
vertex 0.089442 -0.000000 -1.134653
vertex 0.085065 0.061802 -1.125898
endloop
endfacet
facet normal 0.370234 0.155951 -0.915754
outer loop
vertex 0.089442 -0.000000 -1.134653
vertex 0.040636 0.029524 -1.149357
vertex 0.085065 0.061802 -1.125898
endloop
endfacet
facet normal 0.708072 -0.304854 -0.636944
outer loop
vertex 0.162546 -0.059048 -1.056227
vertex 0.121909 -0.088571 -1.087271
vertex 0.134164 -0.032492 -1.100489
endloop
endfacet
facet normal 0.574858 -0.304618 -0.759438
outer loop
vertex 0.121909 -0.088571 -1.087271
vertex 0.085065 -0.061802 -1.125898
vertex 0.134164 -0.032492 -1.100489
endloop
endfacet
facet normal 0.525731 -0.155707 -0.836279
outer loop
vertex 0.134164 -0.032492 -1.100489
vertex 0.085065 -0.061802 -1.125898
vertex 0.089442 -0.000000 -1.134653
endloop
endfacet
facet normal 0.370237 -0.155952 -0.915753
outer loop
vertex 0.085065 -0.061802 -1.125898
vertex 0.040636 -0.029524 -1.149357
vertex 0.089442 -0.000000 -1.134653
endloop
endfacet
facet normal 0.288468 0.000000 -0.957490
outer loop
vertex 0.089442 -0.000000 -1.134653
vertex 0.040636 -0.029524 -1.149357
vertex 0.040636 0.029524 -1.149357
endloop
endfacet
facet normal 0.155819 0.000000 -0.987786
outer loop
vertex 0.040636 -0.029524 -1.149357
vertex 0.000000 0.000000 -1.155767
vertex 0.040636 0.029524 -1.149357
endloop
endfacet
facet normal -0.168484 -0.814944 -0.554509
outer loop
vertex -0.046564 -0.143313 -1.087271
vertex -0.005928 -0.172837 -1.056227
vertex -0.055278 -0.170130 -1.045211
endloop
endfacet
facet normal -0.112062 -0.640855 -0.759438
outer loop
vertex -0.032491 -0.099999 -1.125898
vertex 0.010558 -0.137637 -1.100489
vertex -0.046564 -0.143313 -1.087271
endloop
endfacet
facet normal -0.033904 -0.400305 -0.915754
outer loop
vertex -0.015521 -0.047771 -1.149357
vertex 0.027640 -0.085064 -1.134653
vertex -0.032491 -0.099999 -1.125898
endloop
endfacet
facet normal -0.071125 -0.767619 -0.636947
outer loop
vertex -0.046564 -0.143313 -1.087271
vertex 0.010558 -0.137637 -1.100489
vertex -0.005928 -0.172837 -1.056227
endloop
endfacet
facet normal 0.102582 -0.796809 -0.595460
outer loop
vertex 0.010558 -0.137637 -1.100489
vertex 0.052574 -0.161802 -1.060915
vertex -0.005928 -0.172837 -1.056227
endloop
endfacet
facet normal 0.014373 -0.548111 -0.836282
outer loop
vertex -0.032491 -0.099999 -1.125898
vertex 0.027640 -0.085064 -1.134653
vertex 0.010558 -0.137637 -1.100489
endloop
endfacet
facet normal 0.187596 -0.577345 -0.794658
outer loop
vertex 0.027640 -0.085064 -1.134653
vertex 0.072361 -0.117556 -1.100489
vertex 0.010558 -0.137637 -1.100489
endloop
endfacet
facet normal 0.228690 -0.703819 -0.672562
outer loop
vertex 0.010558 -0.137637 -1.100489
vertex 0.072361 -0.117556 -1.100489
vertex 0.052574 -0.161802 -1.060915
endloop
endfacet
facet normal 0.385366 -0.704925 -0.595460
outer loop
vertex 0.072361 -0.117556 -1.100489
vertex 0.106388 -0.136342 -1.056227
vertex 0.052574 -0.161802 -1.060915
endloop
endfacet
facet normal 0.089145 -0.274350 -0.957489
outer loop
vertex -0.015521 -0.047771 -1.149357
vertex 0.040636 -0.029524 -1.149357
vertex 0.027640 -0.085064 -1.134653
endloop
endfacet
facet normal 0.262726 -0.303921 -0.915755
outer loop
vertex 0.040636 -0.029524 -1.149357
vertex 0.085065 -0.061802 -1.125898
vertex 0.027640 -0.085064 -1.134653
endloop
endfacet
facet normal 0.310553 -0.451878 -0.836279
outer loop
vertex 0.027640 -0.085064 -1.134653
vertex 0.085065 -0.061802 -1.125898
vertex 0.072361 -0.117556 -1.100489
endloop
endfacet
facet normal 0.467352 -0.452587 -0.759438
outer loop
vertex 0.085065 -0.061802 -1.125898
vertex 0.121909 -0.088571 -1.087271
vertex 0.072361 -0.117556 -1.100489
endloop
endfacet
facet normal 0.508743 -0.579205 -0.636948
outer loop
vertex 0.072361 -0.117556 -1.100489
vertex 0.121909 -0.088571 -1.087271
vertex 0.106388 -0.136342 -1.056227
endloop
endfacet
facet normal 0.615328 -0.560261 -0.554508
outer loop
vertex 0.121909 -0.088571 -1.087271
vertex 0.144721 -0.105145 -1.045211
vertex 0.106388 -0.136342 -1.056227
endloop
endfacet
facet normal 0.342698 -0.758339 0.554508
outer loop
vertex 0.055277 -0.170130 1.045210
vertex 0.096793 -0.143313 1.056227
vertex 0.046563 -0.143313 1.087270
endloop
endfacet
facet normal -0.615328 -0.560262 0.554507
outer loop
vertex -0.144723 -0.105145 1.045210
vertex -0.106389 -0.136343 1.056227
vertex -0.121910 -0.088571 1.087270
endloop
endfacet
facet normal -0.722994 0.412070 0.554507
outer loop
vertex -0.144723 0.105145 1.045210
vertex -0.162547 0.059047 1.056226
vertex -0.121910 0.088571 1.087270
endloop
endfacet
facet normal 0.168485 0.814944 0.554509
outer loop
vertex 0.055277 0.170130 1.045210
vertex 0.005927 0.172837 1.056227
vertex 0.046563 0.143313 1.087270
endloop
endfacet
facet normal 0.827127 0.091584 0.554503
outer loop
vertex 0.178884 -0.000000 1.045209
vertex 0.166209 0.047771 1.056226
vertex 0.150687 -0.000000 1.087269
endloop
endfacet
facet normal 0.126063 0.091587 0.987785
outer loop
vertex 0.050228 -0.000000 1.149356
vertex 0.015520 0.047771 1.149356
vertex -0.000001 -0.000000 1.155766
endloop
endfacet
facet normal 0.391195 0.091451 0.915753
outer loop
vertex 0.105145 -0.000000 1.125897
vertex 0.072359 0.052573 1.134652
vertex 0.050228 -0.000000 1.149356
endloop
endfacet
facet normal 0.644125 0.091453 0.759434
outer loop
vertex 0.150687 -0.000000 1.087269
vertex 0.127638 0.052573 1.100488
vertex 0.105145 -0.000000 1.125897
endloop
endfacet
facet normal 0.233379 0.169558 0.957489
outer loop
vertex 0.050228 -0.000000 1.149356
vertex 0.072359 0.052573 1.134652
vertex 0.015520 0.047771 1.149356
endloop
endfacet
facet normal 0.207860 0.343783 0.915755
outer loop
vertex 0.072359 0.052573 1.134652
vertex 0.032490 0.099999 1.125897
vertex 0.015520 0.047771 1.149356
endloop
endfacet
facet normal 0.516847 0.183047 0.836279
outer loop
vertex 0.105145 -0.000000 1.125897
vertex 0.127638 0.052573 1.100488
vertex 0.072359 0.052573 1.134652
endloop
endfacet
facet normal 0.491122 0.356818 0.794657
outer loop
vertex 0.127638 0.052573 1.100488
vertex 0.089441 0.105146 1.100489
vertex 0.072359 0.052573 1.134652
endloop
endfacet
facet normal 0.333801 0.434983 0.836281
outer loop
vertex 0.072359 0.052573 1.134652
vertex 0.089441 0.105146 1.100489
vertex 0.032490 0.099999 1.125897
endloop
endfacet
facet normal 0.286019 0.584336 0.759437
outer loop
vertex 0.089441 0.105146 1.100489
vertex 0.046563 0.143313 1.087270
vertex 0.032490 0.099999 1.125897
endloop
endfacet
facet normal 0.752028 0.169560 0.636949
outer loop
vertex 0.150687 -0.000000 1.087269
vertex 0.166209 0.047771 1.056226
vertex 0.127638 0.052573 1.100488
endloop
endfacet
facet normal 0.726112 0.343786 0.595460
outer loop
vertex 0.166209 0.047771 1.056226
vertex 0.137637 0.099999 1.060914
vertex 0.127638 0.052573 1.100488
endloop
endfacet
facet normal 0.598707 0.434984 0.672562
outer loop
vertex 0.127638 0.052573 1.100488
vertex 0.137637 0.099999 1.060914
vertex 0.089441 0.105146 1.100489
endloop
endfacet
facet normal 0.551345 0.584335 0.595459
outer loop
vertex 0.137637 0.099999 1.060914
vertex 0.096793 0.143313 1.056227
vertex 0.089441 0.105146 1.100489
endloop
endfacet
facet normal 0.393647 0.662827 0.636948
outer loop
vertex 0.089441 0.105146 1.100489
vertex 0.096793 0.143313 1.056227
vertex 0.046563 0.143313 1.087270
endloop
endfacet
facet normal 0.342698 0.758339 0.554509
outer loop
vertex 0.096793 0.143313 1.056227
vertex 0.055277 0.170130 1.045210
vertex 0.046563 0.143313 1.087270
endloop
endfacet
facet normal -0.048152 0.148192 0.987786
outer loop
vertex 0.015520 0.047771 1.149356
vertex -0.040637 0.029524 1.149356
vertex -0.000001 -0.000000 1.155766
endloop
endfacet
facet normal 0.033903 0.400305 0.915754
outer loop
vertex 0.032490 0.099999 1.125897
vertex -0.027641 0.085064 1.134652
vertex 0.015520 0.047771 1.149356
endloop
endfacet
facet normal 0.112064 0.640857 0.759437
outer loop
vertex 0.046563 0.143313 1.087270
vertex -0.010559 0.137637 1.100489
vertex 0.032490 0.099999 1.125897
endloop
endfacet
facet normal -0.089145 0.274354 0.957488
outer loop
vertex 0.015520 0.047771 1.149356
vertex -0.027641 0.085064 1.134652
vertex -0.040637 0.029524 1.149356
endloop
endfacet
facet normal -0.262721 0.303924 0.915756
outer loop
vertex -0.027641 0.085064 1.134652
vertex -0.085066 0.061802 1.125897
vertex -0.040637 0.029524 1.149356
endloop
endfacet
facet normal -0.014382 0.548111 0.836282
outer loop
vertex 0.032490 0.099999 1.125897
vertex -0.010559 0.137637 1.100489
vertex -0.027641 0.085064 1.134652
endloop
endfacet
facet normal -0.187592 0.577343 0.794660
outer loop
vertex -0.010559 0.137637 1.100489
vertex -0.072362 0.117556 1.100489
vertex -0.027641 0.085064 1.134652
endloop
endfacet
facet normal -0.310541 0.451881 0.836282
outer loop
vertex -0.027641 0.085064 1.134652
vertex -0.072362 0.117556 1.100489
vertex -0.085066 0.061802 1.125897
endloop
endfacet
facet normal -0.467352 0.452591 0.759436
outer loop
vertex -0.072362 0.117556 1.100489
vertex -0.121910 0.088571 1.087270
vertex -0.085066 0.061802 1.125897
endloop
endfacet
facet normal 0.071123 0.767618 0.636949
outer loop
vertex 0.046563 0.143313 1.087270
vertex 0.005927 0.172837 1.056227
vertex -0.010559 0.137637 1.100489
endloop
endfacet
facet normal -0.102582 0.796807 0.595463
outer loop
vertex 0.005927 0.172837 1.056227
vertex -0.052575 0.161802 1.060914
vertex -0.010559 0.137637 1.100489
endloop
endfacet
facet normal -0.228690 0.703817 0.672565
outer loop
vertex -0.010559 0.137637 1.100489
vertex -0.052575 0.161802 1.060914
vertex -0.072362 0.117556 1.100489
endloop
endfacet
facet normal -0.385367 0.704923 0.595462
outer loop
vertex -0.052575 0.161802 1.060914
vertex -0.106389 0.136342 1.056227
vertex -0.072362 0.117556 1.100489
endloop
endfacet
facet normal -0.508740 0.579206 0.636948
outer loop
vertex -0.072362 0.117556 1.100489
vertex -0.106389 0.136342 1.056227
vertex -0.121910 0.088571 1.087270
endloop
endfacet
facet normal -0.615327 0.560263 0.554508
outer loop
vertex -0.106389 0.136342 1.056227
vertex -0.144723 0.105145 1.045210
vertex -0.121910 0.088571 1.087270
endloop
endfacet
facet normal -0.155813 0.000000 0.987786
outer loop
vertex -0.040637 0.029524 1.149356
vertex -0.040637 -0.029524 1.149356
vertex -0.000001 -0.000000 1.155766
endloop
endfacet
facet normal -0.370236 0.155947 0.915754
outer loop
vertex -0.085066 0.061802 1.125897
vertex -0.089443 -0.000000 1.134652
vertex -0.040637 0.029524 1.149356
endloop
endfacet
facet normal -0.574861 0.304616 0.759436
outer loop
vertex -0.121910 0.088571 1.087270
vertex -0.134164 0.032491 1.100489
vertex -0.085066 0.061802 1.125897
endloop
endfacet
facet normal -0.288473 0.000000 0.957488
outer loop
vertex -0.040637 0.029524 1.149356
vertex -0.089443 -0.000000 1.134652
vertex -0.040637 -0.029524 1.149356
endloop
endfacet
facet normal -0.370235 -0.155947 0.915755
outer loop
vertex -0.089443 -0.000000 1.134652
vertex -0.085066 -0.061802 1.125897
vertex -0.040637 -0.029524 1.149356
endloop
endfacet
facet normal -0.525728 0.155702 0.836281
outer loop
vertex -0.085066 0.061802 1.125897
vertex -0.134164 0.032491 1.100489
vertex -0.089443 -0.000000 1.134652
endloop
endfacet
facet normal -0.607054 0.000000 0.794660
outer loop
vertex -0.134164 0.032491 1.100489
vertex -0.134164 -0.032491 1.100489
vertex -0.089443 -0.000000 1.134652
endloop
endfacet
facet normal -0.525728 -0.155702 0.836281
outer loop
vertex -0.089443 -0.000000 1.134652
vertex -0.134164 -0.032491 1.100489
vertex -0.085066 -0.061802 1.125897
endloop
endfacet
facet normal -0.574860 -0.304617 0.759437
outer loop
vertex -0.134164 -0.032491 1.100489
vertex -0.121910 -0.088571 1.087270
vertex -0.085066 -0.061802 1.125897
endloop
endfacet
facet normal -0.708071 0.304853 0.636946
outer loop
vertex -0.121910 0.088571 1.087270
vertex -0.162547 0.059047 1.056226
vertex -0.134164 0.032491 1.100489
endloop
endfacet
facet normal -0.789510 0.148667 0.595459
outer loop
vertex -0.162547 0.059047 1.056226
vertex -0.170131 -0.000000 1.060914
vertex -0.134164 0.032491 1.100489
endloop
endfacet
facet normal -0.740044 0.000000 0.672559
outer loop
vertex -0.134164 0.032491 1.100489
vertex -0.170131 -0.000000 1.060914
vertex -0.134164 -0.032491 1.100489
endloop
endfacet
facet normal -0.789511 -0.148667 0.595459
outer loop
vertex -0.170131 -0.000000 1.060914
vertex -0.162547 -0.059048 1.056226
vertex -0.134164 -0.032491 1.100489
endloop
endfacet
facet normal -0.708071 -0.304853 0.636946
outer loop
vertex -0.134164 -0.032491 1.100489
vertex -0.162547 -0.059048 1.056226
vertex -0.121910 -0.088571 1.087270
endloop
endfacet
facet normal -0.722994 -0.412070 0.554507
outer loop
vertex -0.162547 -0.059048 1.056226
vertex -0.144723 -0.105145 1.045210
vertex -0.121910 -0.088571 1.087270
endloop
endfacet
facet normal -0.048155 -0.148192 0.987786
outer loop
vertex -0.040637 -0.029524 1.149356
vertex 0.015520 -0.047771 1.149356
vertex -0.000001 -0.000000 1.155766
endloop
endfacet
facet normal -0.262727 -0.303923 0.915754
outer loop
vertex -0.085066 -0.061802 1.125897
vertex -0.027641 -0.085064 1.134652
vertex -0.040637 -0.029524 1.149356
endloop
endfacet
facet normal -0.467353 -0.452590 0.759436
outer loop
vertex -0.121910 -0.088571 1.087270
vertex -0.072362 -0.117556 1.100489
vertex -0.085066 -0.061802 1.125897
endloop
endfacet
facet normal -0.089143 -0.274354 0.957488
outer loop
vertex -0.040637 -0.029524 1.149356
vertex -0.027641 -0.085064 1.134652
vertex 0.015520 -0.047771 1.149356
endloop
endfacet
facet normal 0.033901 -0.400305 0.915755
outer loop
vertex -0.027641 -0.085064 1.134652
vertex 0.032490 -0.099999 1.125897
vertex 0.015520 -0.047771 1.149356
endloop
endfacet
facet normal -0.310541 -0.451882 0.836282
outer loop
vertex -0.085066 -0.061802 1.125897
vertex -0.072362 -0.117556 1.100489
vertex -0.027641 -0.085064 1.134652
endloop
endfacet
facet normal -0.187594 -0.577343 0.794659
outer loop
vertex -0.072362 -0.117556 1.100489
vertex -0.010559 -0.137637 1.100489
vertex -0.027641 -0.085064 1.134652
endloop
endfacet
facet normal -0.014382 -0.548111 0.836281
outer loop
vertex -0.027641 -0.085064 1.134652
vertex -0.010559 -0.137637 1.100489
vertex 0.032490 -0.099999 1.125897
endloop
endfacet
facet normal 0.112064 -0.640857 0.759437
outer loop
vertex -0.010559 -0.137637 1.100489
vertex 0.046563 -0.143313 1.087270
vertex 0.032490 -0.099999 1.125897
endloop
endfacet
facet normal -0.508740 -0.579206 0.636949
outer loop
vertex -0.121910 -0.088571 1.087270
vertex -0.106389 -0.136343 1.056227
vertex -0.072362 -0.117556 1.100489
endloop
endfacet
facet normal -0.385367 -0.704923 0.595463
outer loop
vertex -0.106389 -0.136343 1.056227
vertex -0.052575 -0.161802 1.060914
vertex -0.072362 -0.117556 1.100489
endloop
endfacet
facet normal -0.228689 -0.703817 0.672565
outer loop
vertex -0.072362 -0.117556 1.100489
vertex -0.052575 -0.161802 1.060914
vertex -0.010559 -0.137637 1.100489
endloop
endfacet
facet normal -0.102582 -0.796807 0.595463
outer loop
vertex -0.052575 -0.161802 1.060914
vertex 0.005927 -0.172837 1.056227
vertex -0.010559 -0.137637 1.100489
endloop
endfacet
facet normal 0.071123 -0.767618 0.636949
outer loop
vertex -0.010559 -0.137637 1.100489
vertex 0.005927 -0.172837 1.056227
vertex 0.046563 -0.143313 1.087270
endloop
endfacet
facet normal 0.168486 -0.814943 0.554508
outer loop
vertex 0.005927 -0.172837 1.056227
vertex 0.055277 -0.170130 1.045210
vertex 0.046563 -0.143313 1.087270
endloop
endfacet
facet normal 0.126063 -0.091587 0.987785
outer loop
vertex 0.015520 -0.047771 1.149356
vertex 0.050228 -0.000000 1.149356
vertex -0.000001 -0.000000 1.155766
endloop
endfacet
facet normal 0.207863 -0.343783 0.915754
outer loop
vertex 0.032490 -0.099999 1.125897
vertex 0.072359 -0.052573 1.134652
vertex 0.015520 -0.047771 1.149356
endloop
endfacet
facet normal 0.286018 -0.584336 0.759437
outer loop
vertex 0.046563 -0.143313 1.087270
vertex 0.089441 -0.105146 1.100489
vertex 0.032490 -0.099999 1.125897
endloop
endfacet
facet normal 0.233379 -0.169558 0.957489
outer loop
vertex 0.015520 -0.047771 1.149356
vertex 0.072359 -0.052573 1.134652
vertex 0.050228 -0.000000 1.149356
endloop
endfacet
facet normal 0.391195 -0.091451 0.915753
outer loop
vertex 0.072359 -0.052573 1.134652
vertex 0.105145 -0.000000 1.125897
vertex 0.050228 -0.000000 1.149356
endloop
endfacet
facet normal 0.333800 -0.434983 0.836282
outer loop
vertex 0.032490 -0.099999 1.125897
vertex 0.089441 -0.105146 1.100489
vertex 0.072359 -0.052573 1.134652
endloop
endfacet
facet normal 0.491122 -0.356818 0.794657
outer loop
vertex 0.089441 -0.105146 1.100489
vertex 0.127638 -0.052573 1.100488
vertex 0.072359 -0.052573 1.134652
endloop
endfacet
facet normal 0.516846 -0.183047 0.836280
outer loop
vertex 0.072359 -0.052573 1.134652
vertex 0.127638 -0.052573 1.100488
vertex 0.105145 -0.000000 1.125897
endloop
endfacet
facet normal 0.644125 -0.091453 0.759434
outer loop
vertex 0.127638 -0.052573 1.100488
vertex 0.150687 -0.000000 1.087269
vertex 0.105145 -0.000000 1.125897
endloop
endfacet
facet normal 0.393646 -0.662827 0.636948
outer loop
vertex 0.046563 -0.143313 1.087270
vertex 0.096793 -0.143313 1.056227
vertex 0.089441 -0.105146 1.100489
endloop
endfacet
facet normal 0.551344 -0.584335 0.595460
outer loop
vertex 0.096793 -0.143313 1.056227
vertex 0.137637 -0.099999 1.060914
vertex 0.089441 -0.105146 1.100489
endloop
endfacet
facet normal 0.598705 -0.434985 0.672563
outer loop
vertex 0.089441 -0.105146 1.100489
vertex 0.137637 -0.099999 1.060914
vertex 0.127638 -0.052573 1.100488
endloop
endfacet
facet normal 0.726112 -0.343786 0.595460
outer loop
vertex 0.137637 -0.099999 1.060914
vertex 0.166209 -0.047771 1.056226
vertex 0.127638 -0.052573 1.100488
endloop
endfacet
facet normal 0.752028 -0.169560 0.636948
outer loop
vertex 0.127638 -0.052573 1.100488
vertex 0.166209 -0.047771 1.056226
vertex 0.150687 -0.000000 1.087269
endloop
endfacet
facet normal 0.827127 -0.091584 0.554503
outer loop
vertex 0.166209 -0.047771 1.056226
vertex 0.178884 -0.000000 1.045209
vertex 0.150687 -0.000000 1.087269
endloop
endfacet
facet normal 0.905035 0.148192 0.398685
outer loop
vertex 0.191324 0.029524 1.005996
vertex 0.166209 0.047771 1.056226
vertex 0.178884 -0.000000 1.045209
endloop
endfacet
facet normal 0.936571 0.303923 0.174545
outer loop
vertex 0.190211 0.061802 0.955766
vertex 0.172360 0.085064 1.011046
vertex 0.191324 0.029524 1.005996
endloop
endfacet
facet normal 0.896270 0.274349 0.348472
outer loop
vertex 0.191324 0.029524 1.005996
vertex 0.172360 0.085064 1.011046
vertex 0.166209 0.047771 1.056226
endloop
endfacet
facet normal 0.803908 0.400309 0.439870
outer loop
vertex 0.172360 0.085064 1.011046
vertex 0.137637 0.099999 1.060914
vertex 0.166209 0.047771 1.056226
endloop
endfacet
facet normal 0.886873 0.451880 0.096235
outer loop
vertex 0.190211 0.061802 0.955766
vertex 0.161803 0.117556 0.955766
vertex 0.172360 0.085064 1.011046
endloop
endfacet
facet normal 0.794655 0.577349 0.187594
outer loop
vertex 0.161803 0.117556 0.955766
vertex 0.134163 0.137638 1.011046
vertex 0.172360 0.085064 1.011046
endloop
endfacet
facet normal 0.754418 0.548113 0.361144
outer loop
vertex 0.172360 0.085064 1.011046
vertex 0.134163 0.137638 1.011046
vertex 0.137637 0.099999 1.060914
endloop
endfacet
facet normal 0.629136 0.640859 0.439872
outer loop
vertex 0.134163 0.137638 1.011046
vertex 0.096793 0.143313 1.056227
vertex 0.137637 0.099999 1.060914
endloop
endfacet
facet normal 0.703826 0.703823 0.096235
outer loop
vertex 0.161803 0.117556 0.955766
vertex 0.117556 0.161803 0.955766
vertex 0.134163 0.137638 1.011046
endloop
endfacet
facet normal 0.578467 0.796812 0.174546
outer loop
vertex 0.117556 0.161803 0.955766
vertex 0.087200 0.172838 1.005997
vertex 0.134163 0.137638 1.011046
endloop
endfacet
facet normal 0.537886 0.767622 0.348475
outer loop
vertex 0.134163 0.137638 1.011046
vertex 0.087200 0.172838 1.005997
vertex 0.096793 0.143313 1.056227
endloop
endfacet
facet normal 0.420607 0.814945 0.398690
outer loop
vertex 0.087200 0.172838 1.005997
vertex 0.055277 0.170130 1.045210
vertex 0.096793 0.143313 1.056227
endloop
endfacet
facet normal 0.138727 0.906533 0.398688
outer loop
vertex 0.031042 0.191084 1.005997
vertex 0.005927 0.172837 1.056227
vertex 0.055277 0.170130 1.045210
endloop
endfacet
facet normal 0.000363 0.984649 0.174546
outer loop
vertex -0.000001 0.200000 0.955766
vertex -0.027641 0.190211 1.011046
vertex 0.031042 0.191084 1.005997
endloop
endfacet
facet normal 0.016035 0.937181 0.348476
outer loop
vertex 0.031042 0.191084 1.005997
vertex -0.027641 0.190211 1.011046
vertex 0.005927 0.172837 1.056227
endloop
endfacet
facet normal -0.132299 0.888263 0.439871
outer loop
vertex -0.027641 0.190211 1.011046
vertex -0.052575 0.161802 1.060914
vertex 0.005927 0.172837 1.056227
endloop
endfacet
facet normal -0.155708 0.983104 0.096237
outer loop
vertex -0.000001 0.200000 0.955766
vertex -0.061804 0.190211 0.955766
vertex -0.027641 0.190211 1.011046
endloop
endfacet
facet normal -0.303533 0.934171 0.187594
outer loop
vertex -0.061804 0.190211 0.955766
vertex -0.089444 0.170130 1.011046
vertex -0.027641 0.190211 1.011046
endloop
endfacet
facet normal -0.288164 0.886869 0.361145
outer loop
vertex -0.027641 0.190211 1.011046
vertex -0.089444 0.170130 1.011046
vertex -0.052575 0.161802 1.060914
endloop
endfacet
facet normal -0.415084 0.796378 0.439871
outer loop
vertex -0.089444 0.170130 1.011046
vertex -0.106389 0.136342 1.056227
vertex -0.052575 0.161802 1.060914
endloop
endfacet
facet normal -0.451884 0.886871 0.096235
outer loop
vertex -0.061804 0.190211 0.955766
vertex -0.117558 0.161803 0.955766
vertex -0.089444 0.170130 1.011046
endloop
endfacet
facet normal -0.579060 0.796382 0.174546
outer loop
vertex -0.117558 0.161803 0.955766
vertex -0.137433 0.136343 1.005997
vertex -0.089444 0.170130 1.011046
endloop
endfacet
facet normal -0.563838 0.748767 0.348476
outer loop
vertex -0.089444 0.170130 1.011046
vertex -0.137433 0.136343 1.005997
vertex -0.106389 0.136342 1.056227
endloop
endfacet
facet normal -0.645085 0.651853 0.398689
outer loop
vertex -0.137433 0.136343 1.005997
vertex -0.144723 0.105145 1.045210
vertex -0.106389 0.136342 1.056227
endloop
endfacet
facet normal -0.819296 0.412071 0.398687
outer loop
vertex -0.172141 0.088571 1.005997
vertex -0.162547 0.059047 1.056226
vertex -0.144723 0.105145 1.045210
endloop
endfacet
facet normal -0.936345 0.304617 0.174544
outer loop
vertex -0.190213 0.061802 0.955766
vertex -0.189444 0.032491 1.011046
vertex -0.172141 0.088571 1.005997
endloop
endfacet
facet normal -0.886357 0.304853 0.348476
outer loop
vertex -0.172141 0.088571 1.005997
vertex -0.189444 0.032491 1.011046
vertex -0.162547 0.059047 1.056226
endloop
endfacet
facet normal -0.885672 0.148666 0.439869
outer loop
vertex -0.189444 0.032491 1.011046
vertex -0.170131 -0.000000 1.060914
vertex -0.162547 0.059047 1.056226
endloop
endfacet
facet normal -0.983104 0.155706 0.096237
outer loop
vertex -0.190213 0.061802 0.955766
vertex -0.200001 -0.000000 0.955766
vertex -0.189444 0.032491 1.011046
endloop
endfacet
facet normal -0.982247 0.000000 0.187592
outer loop
vertex -0.200001 -0.000000 0.955766
vertex -0.189444 -0.032492 1.011046
vertex -0.189444 0.032491 1.011046
endloop
endfacet
facet normal -0.932509 0.000001 0.361147
outer loop
vertex -0.189444 0.032491 1.011046
vertex -0.189444 -0.032492 1.011046
vertex -0.170131 -0.000000 1.060914
endloop
endfacet
facet normal -0.885671 -0.148666 0.439870
outer loop
vertex -0.189444 -0.032492 1.011046
vertex -0.162547 -0.059048 1.056226
vertex -0.170131 -0.000000 1.060914
endloop
endfacet
facet normal -0.983104 -0.155707 0.096237
outer loop
vertex -0.200001 -0.000000 0.955766
vertex -0.190213 -0.061803 0.955766
vertex -0.189444 -0.032492 1.011046
endloop
endfacet
facet normal -0.936345 -0.304619 0.174544
outer loop
vertex -0.190213 -0.061803 0.955766
vertex -0.172141 -0.088572 1.005997
vertex -0.189444 -0.032492 1.011046
endloop
endfacet
facet normal -0.886357 -0.304854 0.348476
outer loop
vertex -0.189444 -0.032492 1.011046
vertex -0.172141 -0.088572 1.005997
vertex -0.162547 -0.059048 1.056226
endloop
endfacet
facet normal -0.819296 -0.412071 0.398687
outer loop
vertex -0.172141 -0.088572 1.005997
vertex -0.144723 -0.105145 1.045210
vertex -0.162547 -0.059048 1.056226
endloop
endfacet
facet normal -0.645085 -0.651852 0.398689
outer loop
vertex -0.137433 -0.136343 1.005997
vertex -0.106389 -0.136343 1.056227
vertex -0.144723 -0.105145 1.045210
endloop
endfacet
facet normal -0.579061 -0.796380 0.174546
outer loop
vertex -0.117558 -0.161803 0.955766
vertex -0.089444 -0.170130 1.011046
vertex -0.137433 -0.136343 1.005997
endloop
endfacet
facet normal -0.563837 -0.748767 0.348476
outer loop
vertex -0.137433 -0.136343 1.005997
vertex -0.089444 -0.170130 1.011046
vertex -0.106389 -0.136343 1.056227
endloop
endfacet
facet normal -0.415083 -0.796379 0.439871
outer loop
vertex -0.089444 -0.170130 1.011046
vertex -0.052575 -0.161802 1.060914
vertex -0.106389 -0.136343 1.056227
endloop
endfacet
facet normal -0.451883 -0.886871 0.096235
outer loop
vertex -0.117558 -0.161803 0.955766
vertex -0.061805 -0.190211 0.955766
vertex -0.089444 -0.170130 1.011046
endloop
endfacet
facet normal -0.303535 -0.934171 0.187594
outer loop
vertex -0.061805 -0.190211 0.955766
vertex -0.027641 -0.190211 1.011046
vertex -0.089444 -0.170130 1.011046
endloop
endfacet
facet normal -0.288165 -0.886868 0.361145
outer loop
vertex -0.089444 -0.170130 1.011046
vertex -0.027641 -0.190211 1.011046
vertex -0.052575 -0.161802 1.060914
endloop
endfacet
facet normal -0.132299 -0.888263 0.439871
outer loop
vertex -0.027641 -0.190211 1.011046
vertex 0.005927 -0.172837 1.056227
vertex -0.052575 -0.161802 1.060914
endloop
endfacet
facet normal -0.155709 -0.983104 0.096235
outer loop
vertex -0.061805 -0.190211 0.955766
vertex -0.000001 -0.200000 0.955766
vertex -0.027641 -0.190211 1.011046
endloop
endfacet
facet normal 0.000363 -0.984649 0.174545
outer loop
vertex -0.000001 -0.200000 0.955766
vertex 0.031042 -0.191084 1.005997
vertex -0.027641 -0.190211 1.011046
endloop
endfacet
facet normal 0.016034 -0.937181 0.348476
outer loop
vertex -0.027641 -0.190211 1.011046
vertex 0.031042 -0.191084 1.005997
vertex 0.005927 -0.172837 1.056227
endloop
endfacet
facet normal 0.138727 -0.906534 0.398687
outer loop
vertex 0.031042 -0.191084 1.005997
vertex 0.055277 -0.170130 1.045210
vertex 0.005927 -0.172837 1.056227
endloop
endfacet
facet normal 0.420607 -0.814945 0.398690
outer loop
vertex 0.087200 -0.172838 1.005997
vertex 0.096793 -0.143313 1.056227
vertex 0.055277 -0.170130 1.045210
endloop
endfacet
facet normal 0.578466 -0.796813 0.174546
outer loop
vertex 0.117556 -0.161803 0.955766
vertex 0.134163 -0.137638 1.011046
vertex 0.087200 -0.172838 1.005997
endloop
endfacet
facet normal 0.537887 -0.767622 0.348475
outer loop
vertex 0.087200 -0.172838 1.005997
vertex 0.134163 -0.137638 1.011046
vertex 0.096793 -0.143313 1.056227
endloop
endfacet
facet normal 0.629137 -0.640858 0.439871
outer loop
vertex 0.134163 -0.137638 1.011046
vertex 0.137637 -0.099999 1.060914
vertex 0.096793 -0.143313 1.056227
endloop
endfacet
facet normal 0.703826 -0.703824 0.096234
outer loop
vertex 0.117556 -0.161803 0.955766
vertex 0.161803 -0.117557 0.955766
vertex 0.134163 -0.137638 1.011046
endloop
endfacet
facet normal 0.794655 -0.577349 0.187593
outer loop
vertex 0.161803 -0.117557 0.955766
vertex 0.172360 -0.085065 1.011045
vertex 0.134163 -0.137638 1.011046
endloop
endfacet
facet normal 0.754417 -0.548115 0.361145
outer loop
vertex 0.134163 -0.137638 1.011046
vertex 0.172360 -0.085065 1.011045
vertex 0.137637 -0.099999 1.060914
endloop
endfacet
facet normal 0.803907 -0.400310 0.439869
outer loop
vertex 0.172360 -0.085065 1.011045
vertex 0.166209 -0.047771 1.056226
vertex 0.137637 -0.099999 1.060914
endloop
endfacet
facet normal 0.886873 -0.451880 0.096233
outer loop
vertex 0.161803 -0.117557 0.955766
vertex 0.190211 -0.061803 0.955766
vertex 0.172360 -0.085065 1.011045
endloop
endfacet
facet normal 0.936572 -0.303921 0.174544
outer loop
vertex 0.190211 -0.061803 0.955766
vertex 0.191324 -0.029524 1.005996
vertex 0.172360 -0.085065 1.011045
endloop
endfacet
facet normal 0.896269 -0.274350 0.348472
outer loop
vertex 0.172360 -0.085065 1.011045
vertex 0.191324 -0.029524 1.005996
vertex 0.166209 -0.047771 1.056226
endloop
endfacet
facet normal 0.905035 -0.148192 0.398685
outer loop
vertex 0.191324 -0.029524 1.005996
vertex 0.178884 -0.000000 1.045209
vertex 0.166209 -0.047771 1.056226
endloop
endfacet
facet normal 0.294548 0.906533 0.302389
outer loop
vertex 0.087200 0.172838 1.005997
vertex 0.031042 0.191084 1.005997
vertex 0.055277 0.170130 1.045210
endloop
endfacet
facet normal 0.452594 0.888265 0.078388
outer loop
vertex 0.117556 0.161803 0.955766
vertex 0.061802 0.190211 0.955766
vertex 0.087200 0.172838 1.005997
endloop
endfacet
facet normal 0.304507 0.937183 0.170186
outer loop
vertex 0.087200 0.172838 1.005997
vertex 0.061802 0.190211 0.955766
vertex 0.031042 0.191084 1.005997
endloop
endfacet
facet normal 0.155953 0.984649 0.078388
outer loop
vertex 0.061802 0.190211 0.955766
vertex -0.000001 0.200000 0.955766
vertex 0.031042 0.191084 1.005997
endloop
endfacet
facet normal -0.771146 0.560264 0.302388
outer loop
vertex -0.137433 0.136343 1.005997
vertex -0.172141 0.088571 1.005997
vertex -0.144723 0.105145 1.045210
endloop
endfacet
facet normal -0.704931 0.704930 0.078388
outer loop
vertex -0.117558 0.161803 0.955766
vertex -0.161805 0.117557 0.955766
vertex -0.137433 0.136343 1.005997
endloop
endfacet
facet normal -0.797217 0.579208 0.170187
outer loop
vertex -0.137433 0.136343 1.005997
vertex -0.161805 0.117557 0.955766
vertex -0.172141 0.088571 1.005997
endloop
endfacet
facet normal -0.888267 0.452590 0.078387
outer loop
vertex -0.161805 0.117557 0.955766
vertex -0.190213 0.061802 0.955766
vertex -0.172141 0.088571 1.005997
endloop
endfacet
facet normal -0.771146 -0.560264 0.302388
outer loop
vertex -0.172141 -0.088572 1.005997
vertex -0.137433 -0.136343 1.005997
vertex -0.144723 -0.105145 1.045210
endloop
endfacet
facet normal -0.888267 -0.452590 0.078388
outer loop
vertex -0.190213 -0.061803 0.955766
vertex -0.161805 -0.117557 0.955766
vertex -0.172141 -0.088572 1.005997
endloop
endfacet
facet normal -0.797217 -0.579208 0.170186
outer loop
vertex -0.172141 -0.088572 1.005997
vertex -0.161805 -0.117557 0.955766
vertex -0.137433 -0.136343 1.005997
endloop
endfacet
facet normal -0.704931 -0.704930 0.078388
outer loop
vertex -0.161805 -0.117557 0.955766
vertex -0.117558 -0.161803 0.955766
vertex -0.137433 -0.136343 1.005997
endloop
endfacet
facet normal 0.294548 -0.906533 0.302389
outer loop
vertex 0.031042 -0.191084 1.005997
vertex 0.087200 -0.172838 1.005997
vertex 0.055277 -0.170130 1.045210
endloop
endfacet
facet normal 0.155953 -0.984649 0.078388
outer loop
vertex -0.000001 -0.200000 0.955766
vertex 0.061802 -0.190211 0.955766
vertex 0.031042 -0.191084 1.005997
endloop
endfacet
facet normal 0.304507 -0.937183 0.170186
outer loop
vertex 0.031042 -0.191084 1.005997
vertex 0.061802 -0.190211 0.955766
vertex 0.087200 -0.172838 1.005997
endloop
endfacet
facet normal 0.452594 -0.888265 0.078388
outer loop
vertex 0.061802 -0.190211 0.955766
vertex 0.117556 -0.161803 0.955766
vertex 0.087200 -0.172838 1.005997
endloop
endfacet
facet normal 0.953185 0.000000 0.302387
outer loop
vertex 0.191324 -0.029524 1.005996
vertex 0.191324 0.029524 1.005996
vertex 0.178884 -0.000000 1.045209
endloop
endfacet
facet normal 0.984649 -0.155951 0.078389
outer loop
vertex 0.190211 -0.061803 0.955766
vertex 0.199999 -0.000000 0.955766
vertex 0.191324 -0.029524 1.005996
endloop
endfacet
facet normal 0.985412 0.000000 0.170184
outer loop
vertex 0.191324 -0.029524 1.005996
vertex 0.199999 -0.000000 0.955766
vertex 0.191324 0.029524 1.005996
endloop
endfacet
facet normal 0.984649 0.155951 0.078389
outer loop
vertex 0.199999 -0.000000 0.955766
vertex 0.190211 0.061802 0.955766
vertex 0.191324 0.029524 1.005996
endloop
endfacet
facet normal 0.891008 -0.453987 0.000000
outer loop
vertex 0.190212 -0.061803 -0.955767
vertex 0.190211 -0.061803 0.955766
vertex 0.161803 -0.117557 0.955766
endloop
endfacet
facet normal 0.453991 -0.891006 0.000000
outer loop
vertex 0.061803 -0.190211 -0.955767
vertex 0.117557 -0.161803 -0.955767
vertex 0.117556 -0.161803 0.955766
endloop
endfacet
facet normal -0.156434 0.987688 -0.000000
outer loop
vertex 0.000000 0.200000 -0.955767
vertex -0.061803 0.190211 -0.955767
vertex -0.061804 0.190211 0.955766
endloop
endfacet
facet normal 0.453991 0.891006 0.000000
outer loop
vertex 0.061803 0.190211 -0.955767
vertex 0.061802 0.190211 0.955766
vertex 0.117556 0.161803 0.955766
endloop
endfacet
facet normal -0.453991 -0.891006 -0.000000
outer loop
vertex -0.117557 -0.161803 -0.955767
vertex -0.061803 -0.190211 -0.955767
vertex -0.061805 -0.190211 0.955766
endloop
endfacet
facet normal -0.453990 0.891007 -0.000000
outer loop
vertex -0.117557 0.161803 -0.955767
vertex -0.117558 0.161803 0.955766
vertex -0.061804 0.190211 0.955766
endloop
endfacet
facet normal 0.156435 0.987688 0.000000
outer loop
vertex 0.000000 0.200000 -0.955767
vertex -0.000001 0.200000 0.955766
vertex 0.061802 0.190211 0.955766
endloop
endfacet
facet normal -0.891008 -0.453987 -0.000001
outer loop
vertex -0.161804 -0.117557 -0.955767
vertex -0.161805 -0.117557 0.955766
vertex -0.190213 -0.061803 0.955766
endloop
endfacet
facet normal -0.156435 -0.987688 -0.000000
outer loop
vertex 0.000000 -0.200000 -0.955767
vertex -0.000001 -0.200000 0.955766
vertex -0.061805 -0.190211 0.955766
endloop
endfacet
facet normal -0.707108 -0.707106 -0.000000
outer loop
vertex -0.117557 -0.161803 -0.955767
vertex -0.117558 -0.161803 0.955766
vertex -0.161805 -0.117557 0.955766
endloop
endfacet
facet normal 0.987689 -0.156432 0.000001
outer loop
vertex 0.200000 0.000000 -0.955767
vertex 0.199999 -0.000000 0.955766
vertex 0.190211 -0.061803 0.955766
endloop
endfacet
facet normal 0.891008 0.453987 0.000001
outer loop
vertex 0.161804 0.117556 -0.955767
vertex 0.161803 0.117556 0.955766
vertex 0.190211 0.061802 0.955766
endloop
endfacet
facet normal 0.987689 0.156432 0.000001
outer loop
vertex 0.190212 0.061803 -0.955767
vertex 0.190211 0.061802 0.955766
vertex 0.199999 -0.000000 0.955766
endloop
endfacet
facet normal -0.987689 0.156433 -0.000001
outer loop
vertex -0.200000 -0.000000 -0.955767
vertex -0.200001 -0.000000 0.955766
vertex -0.190213 0.061802 0.955766
endloop
endfacet
facet normal 0.707108 0.707105 0.000000
outer loop
vertex 0.117557 0.161803 -0.955767
vertex 0.117556 0.161803 0.955766
vertex 0.161803 0.117556 0.955766
endloop
endfacet
facet normal -0.707108 0.707106 -0.000000
outer loop
vertex -0.161804 0.117557 -0.955767
vertex -0.161805 0.117557 0.955766
vertex -0.117558 0.161803 0.955766
endloop
endfacet
facet normal 0.707108 -0.707106 0.000000
outer loop
vertex 0.117557 -0.161803 -0.955767
vertex 0.161804 -0.117557 -0.955768
vertex 0.161803 -0.117557 0.955766
endloop
endfacet
facet normal -0.987689 -0.156433 -0.000001
outer loop
vertex -0.200000 -0.000000 -0.955767
vertex -0.190212 -0.061803 -0.955767
vertex -0.190213 -0.061803 0.955766
endloop
endfacet
facet normal -0.891008 0.453987 -0.000000
outer loop
vertex -0.190212 0.061803 -0.955767
vertex -0.190213 0.061802 0.955766
vertex -0.161805 0.117557 0.955766
endloop
endfacet
facet normal 0.156435 -0.987688 0.000000
outer loop
vertex 0.000000 -0.200000 -0.955767
vertex 0.061803 -0.190211 -0.955767
vertex 0.061802 -0.190211 0.955766
endloop
endfacet
endsolid Exported from Blender-2.80 (sub 75)
