solid Exported from Blender-2.80 (sub 75)
facet normal 0.048151 -0.148190 -0.987786
outer loop
vertex 0.000000 0.000000 -1.000000
vertex 0.203181 -0.147618 -0.967950
vertex -0.077607 -0.238853 -0.967950
endloop
endfacet
facet normal 0.722992 -0.412071 -0.554509
outer loop
vertex 0.723607 -0.525725 -0.447220
vertex 0.609547 -0.442856 -0.657519
vertex 0.812729 -0.295238 -0.502301
endloop
endfacet
facet normal -0.126060 -0.091587 -0.987786
outer loop
vertex 0.000000 0.000000 -1.000000
vertex -0.077607 -0.238853 -0.967950
vertex -0.251147 0.000000 -0.967949
endloop
endfacet
facet normal -0.126060 0.091587 -0.987786
outer loop
vertex 0.000000 0.000000 -1.000000
vertex -0.251147 0.000000 -0.967949
vertex -0.077607 0.238853 -0.967950
endloop
endfacet
facet normal 0.048151 0.148190 -0.987786
outer loop
vertex 0.000000 0.000000 -1.000000
vertex -0.077607 0.238853 -0.967950
vertex 0.203181 0.147618 -0.967950
endloop
endfacet
facet normal 0.819296 -0.412072 -0.398687
outer loop
vertex 0.723607 -0.525725 -0.447220
vertex 0.812729 -0.295238 -0.502301
vertex 0.860698 -0.442858 -0.251151
endloop
endfacet
facet normal -0.138726 -0.906533 -0.398688
outer loop
vertex -0.276388 -0.850649 -0.447220
vertex -0.029639 -0.864184 -0.502302
vertex -0.155215 -0.955422 -0.251152
endloop
endfacet
facet normal -0.905035 -0.148193 -0.398685
outer loop
vertex -0.894426 0.000000 -0.447216
vertex -0.831051 -0.238853 -0.502299
vertex -0.956626 -0.147618 -0.251149
endloop
endfacet
facet normal -0.420608 0.814945 -0.398689
outer loop
vertex -0.276388 0.850649 -0.447220
vertex -0.483971 0.716565 -0.502302
vertex -0.436007 0.864188 -0.251152
endloop
endfacet
facet normal 0.645086 0.651853 -0.398689
outer loop
vertex 0.723607 0.525725 -0.447220
vertex 0.531941 0.681712 -0.502302
vertex 0.687159 0.681715 -0.251152
endloop
endfacet
facet normal 0.771146 -0.560264 -0.302388
outer loop
vertex 0.723607 -0.525725 -0.447220
vertex 0.860698 -0.442858 -0.251151
vertex 0.687159 -0.681715 -0.251152
endloop
endfacet
facet normal -0.294548 -0.906533 -0.302388
outer loop
vertex -0.276388 -0.850649 -0.447220
vertex -0.155215 -0.955422 -0.251152
vertex -0.436007 -0.864188 -0.251152
endloop
endfacet
facet normal -0.953185 0.000000 -0.302386
outer loop
vertex -0.894426 0.000000 -0.447216
vertex -0.956626 -0.147618 -0.251149
vertex -0.956626 0.147618 -0.251149
endloop
endfacet
facet normal -0.294548 0.906533 -0.302388
outer loop
vertex -0.276388 0.850649 -0.447220
vertex -0.436007 0.864188 -0.251152
vertex -0.155215 0.955422 -0.251152
endloop
endfacet
facet normal 0.771146 0.560265 -0.302388
outer loop
vertex 0.723607 0.525725 -0.447220
vertex 0.687159 0.681715 -0.251152
vertex 0.860698 0.442858 -0.251151
endloop
endfacet
facet normal 0.342698 -0.758339 0.554509
outer loop
vertex 0.276388 -0.850649 0.447220
vertex 0.483971 -0.716565 0.502302
vertex 0.232822 -0.716563 0.657519
endloop
endfacet
facet normal -0.615326 -0.560263 0.554509
outer loop
vertex -0.723607 -0.525725 0.447220
vertex -0.531941 -0.681712 0.502302
vertex -0.609547 -0.442856 0.657519
endloop
endfacet
facet normal -0.722992 0.412071 0.554509
outer loop
vertex -0.723607 0.525725 0.447220
vertex -0.812729 0.295238 0.502301
vertex -0.609547 0.442856 0.657519
endloop
endfacet
facet normal 0.168486 0.814943 0.554509
outer loop
vertex 0.276388 0.850649 0.447220
vertex 0.029639 0.864184 0.502302
vertex 0.232822 0.716563 0.657519
endloop
endfacet
facet normal 0.827125 0.091587 0.554505
outer loop
vertex 0.894426 0.000000 0.447216
vertex 0.831051 0.238853 0.502299
vertex 0.753442 0.000000 0.657515
endloop
endfacet
facet normal 0.126060 0.091587 0.987786
outer loop
vertex 0.251147 0.000000 0.967949
vertex 0.077607 0.238853 0.967950
vertex 0.000000 0.000000 1.000000
endloop
endfacet
facet normal 0.391194 0.091450 0.915753
outer loop
vertex 0.525730 0.000000 0.850652
vertex 0.361800 0.262863 0.894429
vertex 0.251147 0.000000 0.967949
endloop
endfacet
facet normal 0.644124 0.091451 0.759434
outer loop
vertex 0.753442 0.000000 0.657515
vertex 0.638194 0.262864 0.723610
vertex 0.525730 0.000000 0.850652
endloop
endfacet
facet normal 0.233376 0.169558 0.957489
outer loop
vertex 0.251147 0.000000 0.967949
vertex 0.361800 0.262863 0.894429
vertex 0.077607 0.238853 0.967950
endloop
endfacet
facet normal 0.207860 0.343785 0.915754
outer loop
vertex 0.361800 0.262863 0.894429
vertex 0.162456 0.499995 0.850654
vertex 0.077607 0.238853 0.967950
endloop
endfacet
facet normal 0.516846 0.183045 0.836280
outer loop
vertex 0.525730 0.000000 0.850652
vertex 0.638194 0.262864 0.723610
vertex 0.361800 0.262863 0.894429
endloop
endfacet
facet normal 0.491120 0.356820 0.794658
outer loop
vertex 0.638194 0.262864 0.723610
vertex 0.447209 0.525728 0.723612
vertex 0.361800 0.262863 0.894429
endloop
endfacet
facet normal 0.333798 0.434985 0.836282
outer loop
vertex 0.361800 0.262863 0.894429
vertex 0.447209 0.525728 0.723612
vertex 0.162456 0.499995 0.850654
endloop
endfacet
facet normal 0.286018 0.584336 0.759438
outer loop
vertex 0.447209 0.525728 0.723612
vertex 0.232822 0.716563 0.657519
vertex 0.162456 0.499995 0.850654
endloop
endfacet
facet normal 0.752031 0.169559 0.636945
outer loop
vertex 0.753442 0.000000 0.657515
vertex 0.831051 0.238853 0.502299
vertex 0.638194 0.262864 0.723610
endloop
endfacet
facet normal 0.726113 0.343786 0.595458
outer loop
vertex 0.831051 0.238853 0.502299
vertex 0.688189 0.499997 0.525736
vertex 0.638194 0.262864 0.723610
endloop
endfacet
facet normal 0.598705 0.434986 0.672562
outer loop
vertex 0.638194 0.262864 0.723610
vertex 0.688189 0.499997 0.525736
vertex 0.447209 0.525728 0.723612
endloop
endfacet
facet normal 0.551342 0.584336 0.595460
outer loop
vertex 0.688189 0.499997 0.525736
vertex 0.483971 0.716565 0.502302
vertex 0.447209 0.525728 0.723612
endloop
endfacet
facet normal 0.393647 0.662827 0.636948
outer loop
vertex 0.447209 0.525728 0.723612
vertex 0.483971 0.716565 0.502302
vertex 0.232822 0.716563 0.657519
endloop
endfacet
facet normal 0.342698 0.758339 0.554509
outer loop
vertex 0.483971 0.716565 0.502302
vertex 0.276388 0.850649 0.447220
vertex 0.232822 0.716563 0.657519
endloop
endfacet
facet normal -0.048151 0.148190 0.987786
outer loop
vertex 0.077607 0.238853 0.967950
vertex -0.203181 0.147618 0.967950
vertex 0.000000 0.000000 1.000000
endloop
endfacet
facet normal 0.033908 0.400305 0.915754
outer loop
vertex 0.162456 0.499995 0.850654
vertex -0.138197 0.425319 0.894430
vertex 0.077607 0.238853 0.967950
endloop
endfacet
facet normal 0.112066 0.640855 0.759438
outer loop
vertex 0.232822 0.716563 0.657519
vertex -0.052790 0.688185 0.723612
vertex 0.162456 0.499995 0.850654
endloop
endfacet
facet normal -0.089143 0.274349 0.957489
outer loop
vertex 0.077607 0.238853 0.967950
vertex -0.138197 0.425319 0.894430
vertex -0.203181 0.147618 0.967950
endloop
endfacet
facet normal -0.262729 0.303920 0.915754
outer loop
vertex -0.138197 0.425319 0.894430
vertex -0.425323 0.309011 0.850654
vertex -0.203181 0.147618 0.967950
endloop
endfacet
facet normal -0.014375 0.548111 0.836282
outer loop
vertex 0.162456 0.499995 0.850654
vertex -0.052790 0.688185 0.723612
vertex -0.138197 0.425319 0.894430
endloop
endfacet
facet normal -0.187594 0.577344 0.794659
outer loop
vertex -0.052790 0.688185 0.723612
vertex -0.361804 0.587778 0.723612
vertex -0.138197 0.425319 0.894430
endloop
endfacet
facet normal -0.310547 0.451877 0.836282
outer loop
vertex -0.138197 0.425319 0.894430
vertex -0.361804 0.587778 0.723612
vertex -0.425323 0.309011 0.850654
endloop
endfacet
facet normal -0.467354 0.452587 0.759438
outer loop
vertex -0.361804 0.587778 0.723612
vertex -0.609547 0.442856 0.657519
vertex -0.425323 0.309011 0.850654
endloop
endfacet
facet normal 0.071125 0.767619 0.636948
outer loop
vertex 0.232822 0.716563 0.657519
vertex 0.029639 0.864184 0.502302
vertex -0.052790 0.688185 0.723612
endloop
endfacet
facet normal -0.102585 0.796808 0.595461
outer loop
vertex 0.029639 0.864184 0.502302
vertex -0.262869 0.809012 0.525738
vertex -0.052790 0.688185 0.723612
endloop
endfacet
facet normal -0.228689 0.703819 0.672562
outer loop
vertex -0.052790 0.688185 0.723612
vertex -0.262869 0.809012 0.525738
vertex -0.361804 0.587778 0.723612
endloop
endfacet
facet normal -0.385367 0.704925 0.595461
outer loop
vertex -0.262869 0.809012 0.525738
vertex -0.531941 0.681712 0.502302
vertex -0.361804 0.587778 0.723612
endloop
endfacet
facet normal -0.508743 0.579205 0.636947
outer loop
vertex -0.361804 0.587778 0.723612
vertex -0.531941 0.681712 0.502302
vertex -0.609547 0.442856 0.657519
endloop
endfacet
facet normal -0.615326 0.560263 0.554509
outer loop
vertex -0.531941 0.681712 0.502302
vertex -0.723607 0.525725 0.447220
vertex -0.609547 0.442856 0.657519
endloop
endfacet
facet normal -0.155817 0.000000 0.987786
outer loop
vertex -0.203181 0.147618 0.967950
vertex -0.203181 -0.147618 0.967950
vertex 0.000000 0.000000 1.000000
endloop
endfacet
facet normal -0.370233 0.155951 0.915755
outer loop
vertex -0.425323 0.309011 0.850654
vertex -0.447210 0.000000 0.894429
vertex -0.203181 0.147618 0.967950
endloop
endfacet
facet normal -0.574859 0.304617 0.759438
outer loop
vertex -0.609547 0.442856 0.657519
vertex -0.670817 0.162457 0.723611
vertex -0.425323 0.309011 0.850654
endloop
endfacet
facet normal -0.288470 0.000000 0.957489
outer loop
vertex -0.203181 0.147618 0.967950
vertex -0.447210 0.000000 0.894429
vertex -0.203181 -0.147618 0.967950
endloop
endfacet
facet normal -0.370233 -0.155951 0.915755
outer loop
vertex -0.447210 0.000000 0.894429
vertex -0.425323 -0.309011 0.850654
vertex -0.203181 -0.147618 0.967950
endloop
endfacet
facet normal -0.525729 0.155706 0.836280
outer loop
vertex -0.425323 0.309011 0.850654
vertex -0.670817 0.162457 0.723611
vertex -0.447210 0.000000 0.894429
endloop
endfacet
facet normal -0.607057 0.000000 0.794658
outer loop
vertex -0.670817 0.162457 0.723611
vertex -0.670817 -0.162457 0.723611
vertex -0.447210 0.000000 0.894429
endloop
endfacet
facet normal -0.525729 -0.155706 0.836280
outer loop
vertex -0.447210 0.000000 0.894429
vertex -0.670817 -0.162457 0.723611
vertex -0.425323 -0.309011 0.850654
endloop
endfacet
facet normal -0.574859 -0.304617 0.759438
outer loop
vertex -0.670817 -0.162457 0.723611
vertex -0.609547 -0.442856 0.657519
vertex -0.425323 -0.309011 0.850654
endloop
endfacet
facet normal -0.708071 0.304852 0.636946
outer loop
vertex -0.609547 0.442856 0.657519
vertex -0.812729 0.295238 0.502301
vertex -0.670817 0.162457 0.723611
endloop
endfacet
facet normal -0.789510 0.148667 0.595460
outer loop
vertex -0.812729 0.295238 0.502301
vertex -0.850648 0.000000 0.525736
vertex -0.670817 0.162457 0.723611
endloop
endfacet
facet normal -0.740043 0.000000 0.672560
outer loop
vertex -0.670817 0.162457 0.723611
vertex -0.850648 0.000000 0.525736
vertex -0.670817 -0.162457 0.723611
endloop
endfacet
facet normal -0.789510 -0.148667 0.595460
outer loop
vertex -0.850648 0.000000 0.525736
vertex -0.812729 -0.295238 0.502301
vertex -0.670817 -0.162457 0.723611
endloop
endfacet
facet normal -0.708071 -0.304853 0.636946
outer loop
vertex -0.670817 -0.162457 0.723611
vertex -0.812729 -0.295238 0.502301
vertex -0.609547 -0.442856 0.657519
endloop
endfacet
facet normal -0.722992 -0.412071 0.554509
outer loop
vertex -0.812729 -0.295238 0.502301
vertex -0.723607 -0.525725 0.447220
vertex -0.609547 -0.442856 0.657519
endloop
endfacet
facet normal -0.048151 -0.148190 0.987786
outer loop
vertex -0.203181 -0.147618 0.967950
vertex 0.077607 -0.238853 0.967950
vertex 0.000000 0.000000 1.000000
endloop
endfacet
facet normal -0.262729 -0.303920 0.915754
outer loop
vertex -0.425323 -0.309011 0.850654
vertex -0.138197 -0.425319 0.894430
vertex -0.203181 -0.147618 0.967950
endloop
endfacet
facet normal -0.467354 -0.452587 0.759438
outer loop
vertex -0.609547 -0.442856 0.657519
vertex -0.361804 -0.587778 0.723612
vertex -0.425323 -0.309011 0.850654
endloop
endfacet
facet normal -0.089143 -0.274349 0.957490
outer loop
vertex -0.203181 -0.147618 0.967950
vertex -0.138197 -0.425319 0.894430
vertex 0.077607 -0.238853 0.967950
endloop
endfacet
facet normal 0.033908 -0.400305 0.915755
outer loop
vertex -0.138197 -0.425319 0.894430
vertex 0.162456 -0.499995 0.850654
vertex 0.077607 -0.238853 0.967950
endloop
endfacet
facet normal -0.310547 -0.451877 0.836282
outer loop
vertex -0.425323 -0.309011 0.850654
vertex -0.361804 -0.587778 0.723612
vertex -0.138197 -0.425319 0.894430
endloop
endfacet
facet normal -0.187593 -0.577344 0.794659
outer loop
vertex -0.361804 -0.587778 0.723612
vertex -0.052790 -0.688185 0.723612
vertex -0.138197 -0.425319 0.894430
endloop
endfacet
facet normal -0.014375 -0.548111 0.836282
outer loop
vertex -0.138197 -0.425319 0.894430
vertex -0.052790 -0.688185 0.723612
vertex 0.162456 -0.499995 0.850654
endloop
endfacet
facet normal 0.112066 -0.640855 0.759438
outer loop
vertex -0.052790 -0.688185 0.723612
vertex 0.232822 -0.716563 0.657519
vertex 0.162456 -0.499995 0.850654
endloop
endfacet
facet normal -0.508744 -0.579205 0.636947
outer loop
vertex -0.609547 -0.442856 0.657519
vertex -0.531941 -0.681712 0.502302
vertex -0.361804 -0.587778 0.723612
endloop
endfacet
facet normal -0.385367 -0.704925 0.595460
outer loop
vertex -0.531941 -0.681712 0.502302
vertex -0.262869 -0.809012 0.525738
vertex -0.361804 -0.587778 0.723612
endloop
endfacet
facet normal -0.228689 -0.703819 0.672562
outer loop
vertex -0.361804 -0.587778 0.723612
vertex -0.262869 -0.809012 0.525738
vertex -0.052790 -0.688185 0.723612
endloop
endfacet
facet normal -0.102584 -0.796808 0.595461
outer loop
vertex -0.262869 -0.809012 0.525738
vertex 0.029639 -0.864184 0.502302
vertex -0.052790 -0.688185 0.723612
endloop
endfacet
facet normal 0.071125 -0.767619 0.636948
outer loop
vertex -0.052790 -0.688185 0.723612
vertex 0.029639 -0.864184 0.502302
vertex 0.232822 -0.716563 0.657519
endloop
endfacet
facet normal 0.168486 -0.814943 0.554509
outer loop
vertex 0.029639 -0.864184 0.502302
vertex 0.276388 -0.850649 0.447220
vertex 0.232822 -0.716563 0.657519
endloop
endfacet
facet normal 0.126060 -0.091587 0.987786
outer loop
vertex 0.077607 -0.238853 0.967950
vertex 0.251147 0.000000 0.967949
vertex 0.000000 0.000000 1.000000
endloop
endfacet
facet normal 0.207860 -0.343785 0.915754
outer loop
vertex 0.162456 -0.499995 0.850654
vertex 0.361800 -0.262863 0.894429
vertex 0.077607 -0.238853 0.967950
endloop
endfacet
facet normal 0.286017 -0.584336 0.759438
outer loop
vertex 0.232822 -0.716563 0.657519
vertex 0.447209 -0.525728 0.723612
vertex 0.162456 -0.499995 0.850654
endloop
endfacet
facet normal 0.233376 -0.169558 0.957489
outer loop
vertex 0.077607 -0.238853 0.967950
vertex 0.361800 -0.262863 0.894429
vertex 0.251147 0.000000 0.967949
endloop
endfacet
facet normal 0.391194 -0.091450 0.915753
outer loop
vertex 0.361800 -0.262863 0.894429
vertex 0.525730 0.000000 0.850652
vertex 0.251147 0.000000 0.967949
endloop
endfacet
facet normal 0.333798 -0.434985 0.836282
outer loop
vertex 0.162456 -0.499995 0.850654
vertex 0.447209 -0.525728 0.723612
vertex 0.361800 -0.262863 0.894429
endloop
endfacet
facet normal 0.491120 -0.356820 0.794658
outer loop
vertex 0.447209 -0.525728 0.723612
vertex 0.638194 -0.262864 0.723610
vertex 0.361800 -0.262863 0.894429
endloop
endfacet
facet normal 0.516846 -0.183045 0.836280
outer loop
vertex 0.361800 -0.262863 0.894429
vertex 0.638194 -0.262864 0.723610
vertex 0.525730 0.000000 0.850652
endloop
endfacet
facet normal 0.644124 -0.091451 0.759434
outer loop
vertex 0.638194 -0.262864 0.723610
vertex 0.753442 0.000000 0.657515
vertex 0.525730 0.000000 0.850652
endloop
endfacet
facet normal 0.393648 -0.662827 0.636948
outer loop
vertex 0.232822 -0.716563 0.657519
vertex 0.483971 -0.716565 0.502302
vertex 0.447209 -0.525728 0.723612
endloop
endfacet
facet normal 0.551342 -0.584337 0.595460
outer loop
vertex 0.483971 -0.716565 0.502302
vertex 0.688189 -0.499997 0.525736
vertex 0.447209 -0.525728 0.723612
endloop
endfacet
facet normal 0.598706 -0.434986 0.672562
outer loop
vertex 0.447209 -0.525728 0.723612
vertex 0.688189 -0.499997 0.525736
vertex 0.638194 -0.262864 0.723610
endloop
endfacet
facet normal 0.726114 -0.343786 0.595458
outer loop
vertex 0.688189 -0.499997 0.525736
vertex 0.831051 -0.238853 0.502299
vertex 0.638194 -0.262864 0.723610
endloop
endfacet
facet normal 0.752031 -0.169559 0.636945
outer loop
vertex 0.638194 -0.262864 0.723610
vertex 0.831051 -0.238853 0.502299
vertex 0.753442 0.000000 0.657515
endloop
endfacet
facet normal 0.827125 -0.091587 0.554505
outer loop
vertex 0.831051 -0.238853 0.502299
vertex 0.894426 0.000000 0.447216
vertex 0.753442 0.000000 0.657515
endloop
endfacet
facet normal 0.905035 0.148193 0.398686
outer loop
vertex 0.956626 0.147618 0.251149
vertex 0.831051 0.238853 0.502299
vertex 0.894426 0.000000 0.447216
endloop
endfacet
facet normal 0.936571 0.303923 0.174544
outer loop
vertex 0.951058 0.309013 0.000000
vertex 0.861804 0.425322 0.276396
vertex 0.956626 0.147618 0.251149
endloop
endfacet
facet normal 0.888267 0.452590 -0.078388
outer loop
vertex 0.860698 0.442858 -0.251151
vertex 0.809019 0.587782 0.000000
vertex 0.951058 0.309013 0.000000
endloop
endfacet
facet normal 0.896269 0.274349 0.348474
outer loop
vertex 0.956626 0.147618 0.251149
vertex 0.861804 0.425322 0.276396
vertex 0.831051 0.238853 0.502299
endloop
endfacet
facet normal 0.803908 0.400308 0.439870
outer loop
vertex 0.861804 0.425322 0.276396
vertex 0.688189 0.499997 0.525736
vertex 0.831051 0.238853 0.502299
endloop
endfacet
facet normal 0.886873 0.451880 0.096235
outer loop
vertex 0.951058 0.309013 0.000000
vertex 0.809019 0.587782 0.000000
vertex 0.861804 0.425322 0.276396
endloop
endfacet
facet normal 0.794655 0.577348 0.187594
outer loop
vertex 0.809019 0.587782 0.000000
vertex 0.670821 0.688189 0.276397
vertex 0.861804 0.425322 0.276396
endloop
endfacet
facet normal 0.754418 0.548113 0.361144
outer loop
vertex 0.861804 0.425322 0.276396
vertex 0.670821 0.688189 0.276397
vertex 0.688189 0.499997 0.525736
endloop
endfacet
facet normal 0.629137 0.640859 0.439872
outer loop
vertex 0.670821 0.688189 0.276397
vertex 0.483971 0.716565 0.502302
vertex 0.688189 0.499997 0.525736
endloop
endfacet
facet normal 0.797217 0.579207 -0.170187
outer loop
vertex 0.860698 0.442858 -0.251151
vertex 0.687159 0.681715 -0.251152
vertex 0.809019 0.587782 0.000000
endloop
endfacet
facet normal 0.704932 0.704929 -0.078388
outer loop
vertex 0.687159 0.681715 -0.251152
vertex 0.587786 0.809017 -0.000000
vertex 0.809019 0.587782 0.000000
endloop
endfacet
facet normal 0.703827 0.703823 0.096235
outer loop
vertex 0.809019 0.587782 0.000000
vertex 0.587786 0.809017 -0.000000
vertex 0.670821 0.688189 0.276397
endloop
endfacet
facet normal 0.578465 0.796813 0.174546
outer loop
vertex 0.587786 0.809017 -0.000000
vertex 0.436007 0.864188 0.251152
vertex 0.670821 0.688189 0.276397
endloop
endfacet
facet normal 0.537886 0.767622 0.348475
outer loop
vertex 0.670821 0.688189 0.276397
vertex 0.436007 0.864188 0.251152
vertex 0.483971 0.716565 0.502302
endloop
endfacet
facet normal 0.420607 0.814945 0.398690
outer loop
vertex 0.436007 0.864188 0.251152
vertex 0.276388 0.850649 0.447220
vertex 0.483971 0.716565 0.502302
endloop
endfacet
facet normal 0.138726 0.906533 0.398688
outer loop
vertex 0.155215 0.955422 0.251152
vertex 0.029639 0.864184 0.502302
vertex 0.276388 0.850649 0.447220
endloop
endfacet
facet normal 0.000363 0.984649 0.174544
outer loop
vertex 0.000000 1.000000 0.000000
vertex -0.138199 0.951055 0.276397
vertex 0.155215 0.955422 0.251152
endloop
endfacet
facet normal -0.155953 0.984649 -0.078389
outer loop
vertex -0.155215 0.955422 -0.251152
vertex -0.309016 0.951057 -0.000000
vertex 0.000000 1.000000 0.000000
endloop
endfacet
facet normal 0.016035 0.937180 0.348477
outer loop
vertex 0.155215 0.955422 0.251152
vertex -0.138199 0.951055 0.276397
vertex 0.029639 0.864184 0.502302
endloop
endfacet
facet normal -0.132301 0.888262 0.439872
outer loop
vertex -0.138199 0.951055 0.276397
vertex -0.262869 0.809012 0.525738
vertex 0.029639 0.864184 0.502302
endloop
endfacet
facet normal -0.155708 0.983104 0.096235
outer loop
vertex 0.000000 1.000000 0.000000
vertex -0.309016 0.951057 -0.000000
vertex -0.138199 0.951055 0.276397
endloop
endfacet
facet normal -0.303533 0.934172 0.187593
outer loop
vertex -0.309016 0.951057 -0.000000
vertex -0.447215 0.850649 0.276397
vertex -0.138199 0.951055 0.276397
endloop
endfacet
facet normal -0.288163 0.886868 0.361147
outer loop
vertex -0.138199 0.951055 0.276397
vertex -0.447215 0.850649 0.276397
vertex -0.262869 0.809012 0.525738
endloop
endfacet
facet normal -0.415083 0.796379 0.439872
outer loop
vertex -0.447215 0.850649 0.276397
vertex -0.531941 0.681712 0.502302
vertex -0.262869 0.809012 0.525738
endloop
endfacet
facet normal -0.304507 0.937183 -0.170186
outer loop
vertex -0.155215 0.955422 -0.251152
vertex -0.436007 0.864188 -0.251152
vertex -0.309016 0.951057 -0.000000
endloop
endfacet
facet normal -0.452594 0.888265 -0.078389
outer loop
vertex -0.436007 0.864188 -0.251152
vertex -0.587786 0.809017 -0.000000
vertex -0.309016 0.951057 -0.000000
endloop
endfacet
facet normal -0.451883 0.886871 0.096236
outer loop
vertex -0.309016 0.951057 -0.000000
vertex -0.587786 0.809017 -0.000000
vertex -0.447215 0.850649 0.276397
endloop
endfacet
facet normal -0.579061 0.796381 0.174545
outer loop
vertex -0.587786 0.809017 -0.000000
vertex -0.687159 0.681715 0.251152
vertex -0.447215 0.850649 0.276397
endloop
endfacet
facet normal -0.563837 0.748767 0.348477
outer loop
vertex -0.447215 0.850649 0.276397
vertex -0.687159 0.681715 0.251152
vertex -0.531941 0.681712 0.502302
endloop
endfacet
facet normal -0.645086 0.651853 0.398689
outer loop
vertex -0.687159 0.681715 0.251152
vertex -0.723607 0.525725 0.447220
vertex -0.531941 0.681712 0.502302
endloop
endfacet
facet normal -0.819296 0.412072 0.398687
outer loop
vertex -0.860698 0.442858 0.251151
vertex -0.812729 0.295238 0.502301
vertex -0.723607 0.525725 0.447220
endloop
endfacet
facet normal -0.936345 0.304618 0.174544
outer loop
vertex -0.951058 0.309013 0.000000
vertex -0.947213 0.162458 0.276396
vertex -0.860698 0.442858 0.251151
endloop
endfacet
facet normal -0.984650 0.155950 -0.078388
outer loop
vertex -0.956626 0.147618 -0.251149
vertex -1.000000 -0.000000 0.000001
vertex -0.951058 0.309013 0.000000
endloop
endfacet
facet normal -0.886357 0.304854 0.348476
outer loop
vertex -0.860698 0.442858 0.251151
vertex -0.947213 0.162458 0.276396
vertex -0.812729 0.295238 0.502301
endloop
endfacet
facet normal -0.885671 0.148666 0.439870
outer loop
vertex -0.947213 0.162458 0.276396
vertex -0.850648 0.000000 0.525736
vertex -0.812729 0.295238 0.502301
endloop
endfacet
facet normal -0.983104 0.155707 0.096236
outer loop
vertex -0.951058 0.309013 0.000000
vertex -1.000000 -0.000000 0.000001
vertex -0.947213 0.162458 0.276396
endloop
endfacet
facet normal -0.982247 -0.000001 0.187592
outer loop
vertex -1.000000 -0.000000 0.000001
vertex -0.947213 -0.162458 0.276397
vertex -0.947213 0.162458 0.276396
endloop
endfacet
facet normal -0.932509 0.000000 0.361146
outer loop
vertex -0.947213 0.162458 0.276396
vertex -0.947213 -0.162458 0.276397
vertex -0.850648 0.000000 0.525736
endloop
endfacet
facet normal -0.885671 -0.148666 0.439870
outer loop
vertex -0.947213 -0.162458 0.276397
vertex -0.812729 -0.295238 0.502301
vertex -0.850648 0.000000 0.525736
endloop
endfacet
facet normal -0.985412 0.000000 -0.170183
outer loop
vertex -0.956626 0.147618 -0.251149
vertex -0.956626 -0.147618 -0.251149
vertex -1.000000 -0.000000 0.000001
endloop
endfacet
facet normal -0.984649 -0.155951 -0.078388
outer loop
vertex -0.956626 -0.147618 -0.251149
vertex -0.951058 -0.309013 -0.000000
vertex -1.000000 -0.000000 0.000001
endloop
endfacet
facet normal -0.983104 -0.155706 0.096237
outer loop
vertex -1.000000 -0.000000 0.000001
vertex -0.951058 -0.309013 -0.000000
vertex -0.947213 -0.162458 0.276397
endloop
endfacet
facet normal -0.936345 -0.304618 0.174544
outer loop
vertex -0.951058 -0.309013 -0.000000
vertex -0.860698 -0.442858 0.251151
vertex -0.947213 -0.162458 0.276397
endloop
endfacet
facet normal -0.886357 -0.304854 0.348476
outer loop
vertex -0.947213 -0.162458 0.276397
vertex -0.860698 -0.442858 0.251151
vertex -0.812729 -0.295238 0.502301
endloop
endfacet
facet normal -0.819296 -0.412072 0.398687
outer loop
vertex -0.860698 -0.442858 0.251151
vertex -0.723607 -0.525725 0.447220
vertex -0.812729 -0.295238 0.502301
endloop
endfacet
facet normal -0.645086 -0.651853 0.398689
outer loop
vertex -0.687159 -0.681715 0.251152
vertex -0.531941 -0.681712 0.502302
vertex -0.723607 -0.525725 0.447220
endloop
endfacet
facet normal -0.579061 -0.796381 0.174546
outer loop
vertex -0.587786 -0.809017 0.000000
vertex -0.447216 -0.850648 0.276397
vertex -0.687159 -0.681715 0.251152
endloop
endfacet
facet normal -0.452594 -0.888265 -0.078389
outer loop
vertex -0.436007 -0.864188 -0.251152
vertex -0.309017 -0.951056 -0.000001
vertex -0.587786 -0.809017 0.000000
endloop
endfacet
facet normal -0.563838 -0.748767 0.348476
outer loop
vertex -0.687159 -0.681715 0.251152
vertex -0.447216 -0.850648 0.276397
vertex -0.531941 -0.681712 0.502302
endloop
endfacet
facet normal -0.415083 -0.796379 0.439871
outer loop
vertex -0.447216 -0.850648 0.276397
vertex -0.262869 -0.809012 0.525738
vertex -0.531941 -0.681712 0.502302
endloop
endfacet
facet normal -0.451883 -0.886871 0.096236
outer loop
vertex -0.587786 -0.809017 0.000000
vertex -0.309017 -0.951056 -0.000001
vertex -0.447216 -0.850648 0.276397
endloop
endfacet
facet normal -0.303534 -0.934171 0.187594
outer loop
vertex -0.309017 -0.951056 -0.000001
vertex -0.138199 -0.951055 0.276397
vertex -0.447216 -0.850648 0.276397
endloop
endfacet
facet normal -0.288164 -0.886868 0.361146
outer loop
vertex -0.447216 -0.850648 0.276397
vertex -0.138199 -0.951055 0.276397
vertex -0.262869 -0.809012 0.525738
endloop
endfacet
facet normal -0.132300 -0.888262 0.439872
outer loop
vertex -0.138199 -0.951055 0.276397
vertex 0.029639 -0.864184 0.502302
vertex -0.262869 -0.809012 0.525738
endloop
endfacet
facet normal -0.304507 -0.937183 -0.170186
outer loop
vertex -0.436007 -0.864188 -0.251152
vertex -0.155215 -0.955422 -0.251152
vertex -0.309017 -0.951056 -0.000001
endloop
endfacet
facet normal -0.155953 -0.984649 -0.078389
outer loop
vertex -0.155215 -0.955422 -0.251152
vertex 0.000000 -1.000000 -0.000000
vertex -0.309017 -0.951056 -0.000001
endloop
endfacet
facet normal -0.155709 -0.983104 0.096235
outer loop
vertex -0.309017 -0.951056 -0.000001
vertex 0.000000 -1.000000 -0.000000
vertex -0.138199 -0.951055 0.276397
endloop
endfacet
facet normal 0.000363 -0.984649 0.174545
outer loop
vertex 0.000000 -1.000000 -0.000000
vertex 0.155215 -0.955422 0.251152
vertex -0.138199 -0.951055 0.276397
endloop
endfacet
facet normal 0.016034 -0.937180 0.348476
outer loop
vertex -0.138199 -0.951055 0.276397
vertex 0.155215 -0.955422 0.251152
vertex 0.029639 -0.864184 0.502302
endloop
endfacet
facet normal 0.138726 -0.906533 0.398688
outer loop
vertex 0.155215 -0.955422 0.251152
vertex 0.276388 -0.850649 0.447220
vertex 0.029639 -0.864184 0.502302
endloop
endfacet
facet normal 0.420607 -0.814945 0.398690
outer loop
vertex 0.436007 -0.864188 0.251152
vertex 0.483971 -0.716565 0.502302
vertex 0.276388 -0.850649 0.447220
endloop
endfacet
facet normal 0.578465 -0.796813 0.174546
outer loop
vertex 0.587786 -0.809017 0.000000
vertex 0.670820 -0.688190 0.276396
vertex 0.436007 -0.864188 0.251152
endloop
endfacet
facet normal 0.704932 -0.704930 -0.078389
outer loop
vertex 0.687159 -0.681715 -0.251152
vertex 0.809019 -0.587783 -0.000002
vertex 0.587786 -0.809017 0.000000
endloop
endfacet
facet normal 0.537887 -0.767622 0.348475
outer loop
vertex 0.436007 -0.864188 0.251152
vertex 0.670820 -0.688190 0.276396
vertex 0.483971 -0.716565 0.502302
endloop
endfacet
facet normal 0.629137 -0.640859 0.439871
outer loop
vertex 0.670820 -0.688190 0.276396
vertex 0.688189 -0.499997 0.525736
vertex 0.483971 -0.716565 0.502302
endloop
endfacet
facet normal 0.703826 -0.703824 0.096234
outer loop
vertex 0.587786 -0.809017 0.000000
vertex 0.809019 -0.587783 -0.000002
vertex 0.670820 -0.688190 0.276396
endloop
endfacet
facet normal 0.794655 -0.577349 0.187592
outer loop
vertex 0.809019 -0.587783 -0.000002
vertex 0.861804 -0.425323 0.276394
vertex 0.670820 -0.688190 0.276396
endloop
endfacet
facet normal 0.754417 -0.548114 0.361144
outer loop
vertex 0.670820 -0.688190 0.276396
vertex 0.861804 -0.425323 0.276394
vertex 0.688189 -0.499997 0.525736
endloop
endfacet
facet normal 0.803908 -0.400308 0.439869
outer loop
vertex 0.861804 -0.425323 0.276394
vertex 0.831051 -0.238853 0.502299
vertex 0.688189 -0.499997 0.525736
endloop
endfacet
facet normal 0.797217 -0.579208 -0.170188
outer loop
vertex 0.687159 -0.681715 -0.251152
vertex 0.860698 -0.442858 -0.251151
vertex 0.809019 -0.587783 -0.000002
endloop
endfacet
facet normal 0.888267 -0.452589 -0.078388
outer loop
vertex 0.860698 -0.442858 -0.251151
vertex 0.951058 -0.309013 -0.000000
vertex 0.809019 -0.587783 -0.000002
endloop
endfacet
facet normal 0.886873 -0.451880 0.096233
outer loop
vertex 0.809019 -0.587783 -0.000002
vertex 0.951058 -0.309013 -0.000000
vertex 0.861804 -0.425323 0.276394
endloop
endfacet
facet normal 0.936571 -0.303923 0.174544
outer loop
vertex 0.951058 -0.309013 -0.000000
vertex 0.956626 -0.147618 0.251149
vertex 0.861804 -0.425323 0.276394
endloop
endfacet
facet normal 0.896269 -0.274351 0.348473
outer loop
vertex 0.861804 -0.425323 0.276394
vertex 0.956626 -0.147618 0.251149
vertex 0.831051 -0.238853 0.502299
endloop
endfacet
facet normal 0.905035 -0.148193 0.398686
outer loop
vertex 0.956626 -0.147618 0.251149
vertex 0.894426 0.000000 0.447216
vertex 0.831051 -0.238853 0.502299
endloop
endfacet
facet normal 0.294548 0.906533 0.302388
outer loop
vertex 0.436007 0.864188 0.251152
vertex 0.155215 0.955422 0.251152
vertex 0.276388 0.850649 0.447220
endloop
endfacet
facet normal 0.452594 0.888265 0.078389
outer loop
vertex 0.587786 0.809017 -0.000000
vertex 0.309017 0.951056 -0.000000
vertex 0.436007 0.864188 0.251152
endloop
endfacet
facet normal 0.579061 0.796381 -0.174546
outer loop
vertex 0.687159 0.681715 -0.251152
vertex 0.447216 0.850648 -0.276398
vertex 0.587786 0.809017 -0.000000
endloop
endfacet
facet normal 0.304507 0.937183 0.170186
outer loop
vertex 0.436007 0.864188 0.251152
vertex 0.309017 0.951056 -0.000000
vertex 0.155215 0.955422 0.251152
endloop
endfacet
facet normal 0.155953 0.984649 0.078388
outer loop
vertex 0.309017 0.951056 -0.000000
vertex 0.000000 1.000000 0.000000
vertex 0.155215 0.955422 0.251152
endloop
endfacet
facet normal 0.451883 0.886871 -0.096236
outer loop
vertex 0.587786 0.809017 -0.000000
vertex 0.447216 0.850648 -0.276398
vertex 0.309017 0.951056 -0.000000
endloop
endfacet
facet normal 0.303533 0.934171 -0.187594
outer loop
vertex 0.447216 0.850648 -0.276398
vertex 0.138199 0.951055 -0.276398
vertex 0.309017 0.951056 -0.000000
endloop
endfacet
facet normal 0.155708 0.983104 -0.096235
outer loop
vertex 0.309017 0.951056 -0.000000
vertex 0.138199 0.951055 -0.276398
vertex 0.000000 1.000000 0.000000
endloop
endfacet
facet normal -0.000363 0.984649 -0.174544
outer loop
vertex 0.138199 0.951055 -0.276398
vertex -0.155215 0.955422 -0.251152
vertex 0.000000 1.000000 0.000000
endloop
endfacet
facet normal 0.563838 0.748766 -0.348476
outer loop
vertex 0.687159 0.681715 -0.251152
vertex 0.531941 0.681712 -0.502302
vertex 0.447216 0.850648 -0.276398
endloop
endfacet
facet normal 0.415083 0.796378 -0.439872
outer loop
vertex 0.531941 0.681712 -0.502302
vertex 0.262869 0.809012 -0.525738
vertex 0.447216 0.850648 -0.276398
endloop
endfacet
facet normal 0.288163 0.886868 -0.361147
outer loop
vertex 0.447216 0.850648 -0.276398
vertex 0.262869 0.809012 -0.525738
vertex 0.138199 0.951055 -0.276398
endloop
endfacet
facet normal 0.132300 0.888262 -0.439872
outer loop
vertex 0.262869 0.809012 -0.525738
vertex -0.029639 0.864184 -0.502302
vertex 0.138199 0.951055 -0.276398
endloop
endfacet
facet normal -0.016035 0.937181 -0.348476
outer loop
vertex 0.138199 0.951055 -0.276398
vertex -0.029639 0.864184 -0.502302
vertex -0.155215 0.955422 -0.251152
endloop
endfacet
facet normal -0.138726 0.906533 -0.398688
outer loop
vertex -0.029639 0.864184 -0.502302
vertex -0.276388 0.850649 -0.447220
vertex -0.155215 0.955422 -0.251152
endloop
endfacet
facet normal -0.771146 0.560264 0.302388
outer loop
vertex -0.687159 0.681715 0.251152
vertex -0.860698 0.442858 0.251151
vertex -0.723607 0.525725 0.447220
endloop
endfacet
facet normal -0.704932 0.704930 0.078388
outer loop
vertex -0.587786 0.809017 -0.000000
vertex -0.809018 0.587783 -0.000000
vertex -0.687159 0.681715 0.251152
endloop
endfacet
facet normal -0.578465 0.796814 -0.174546
outer loop
vertex -0.436007 0.864188 -0.251152
vertex -0.670819 0.688191 -0.276397
vertex -0.587786 0.809017 -0.000000
endloop
endfacet
facet normal -0.797217 0.579208 0.170186
outer loop
vertex -0.687159 0.681715 0.251152
vertex -0.809018 0.587783 -0.000000
vertex -0.860698 0.442858 0.251151
endloop
endfacet
facet normal -0.888267 0.452590 0.078387
outer loop
vertex -0.809018 0.587783 -0.000000
vertex -0.951058 0.309013 0.000000
vertex -0.860698 0.442858 0.251151
endloop
endfacet
facet normal -0.703826 0.703824 -0.096235
outer loop
vertex -0.587786 0.809017 -0.000000
vertex -0.670819 0.688191 -0.276397
vertex -0.809018 0.587783 -0.000000
endloop
endfacet
facet normal -0.794654 0.577350 -0.187594
outer loop
vertex -0.670819 0.688191 -0.276397
vertex -0.861803 0.425324 -0.276396
vertex -0.809018 0.587783 -0.000000
endloop
endfacet
facet normal -0.886873 0.451880 -0.096234
outer loop
vertex -0.809018 0.587783 -0.000000
vertex -0.861803 0.425324 -0.276396
vertex -0.951058 0.309013 0.000000
endloop
endfacet
facet normal -0.936570 0.303924 -0.174545
outer loop
vertex -0.861803 0.425324 -0.276396
vertex -0.956626 0.147618 -0.251149
vertex -0.951058 0.309013 0.000000
endloop
endfacet
facet normal -0.537885 0.767622 -0.348476
outer loop
vertex -0.436007 0.864188 -0.251152
vertex -0.483971 0.716565 -0.502302
vertex -0.670819 0.688191 -0.276397
endloop
endfacet
facet normal -0.629137 0.640858 -0.439872
outer loop
vertex -0.483971 0.716565 -0.502302
vertex -0.688189 0.499997 -0.525736
vertex -0.670819 0.688191 -0.276397
endloop
endfacet
facet normal -0.754416 0.548116 -0.361144
outer loop
vertex -0.670819 0.688191 -0.276397
vertex -0.688189 0.499997 -0.525736
vertex -0.861803 0.425324 -0.276396
endloop
endfacet
facet normal -0.803908 0.400307 -0.439870
outer loop
vertex -0.688189 0.499997 -0.525736
vertex -0.831051 0.238853 -0.502299
vertex -0.861803 0.425324 -0.276396
endloop
endfacet
facet normal -0.896269 0.274351 -0.348473
outer loop
vertex -0.861803 0.425324 -0.276396
vertex -0.831051 0.238853 -0.502299
vertex -0.956626 0.147618 -0.251149
endloop
endfacet
facet normal -0.905035 0.148193 -0.398686
outer loop
vertex -0.831051 0.238853 -0.502299
vertex -0.894426 0.000000 -0.447216
vertex -0.956626 0.147618 -0.251149
endloop
endfacet
facet normal -0.771146 -0.560265 0.302387
outer loop
vertex -0.860698 -0.442858 0.251151
vertex -0.687159 -0.681715 0.251152
vertex -0.723607 -0.525725 0.447220
endloop
endfacet
facet normal -0.888267 -0.452590 0.078387
outer loop
vertex -0.951058 -0.309013 -0.000000
vertex -0.809018 -0.587783 0.000000
vertex -0.860698 -0.442858 0.251151
endloop
endfacet
facet normal -0.936570 -0.303925 -0.174545
outer loop
vertex -0.956626 -0.147618 -0.251149
vertex -0.861803 -0.425324 -0.276396
vertex -0.951058 -0.309013 -0.000000
endloop
endfacet
facet normal -0.797217 -0.579207 0.170187
outer loop
vertex -0.860698 -0.442858 0.251151
vertex -0.809018 -0.587783 0.000000
vertex -0.687159 -0.681715 0.251152
endloop
endfacet
facet normal -0.704932 -0.704930 0.078388
outer loop
vertex -0.809018 -0.587783 0.000000
vertex -0.587786 -0.809017 0.000000
vertex -0.687159 -0.681715 0.251152
endloop
endfacet
facet normal -0.886873 -0.451880 -0.096234
outer loop
vertex -0.951058 -0.309013 -0.000000
vertex -0.861803 -0.425324 -0.276396
vertex -0.809018 -0.587783 0.000000
endloop
endfacet
facet normal -0.794654 -0.577350 -0.187594
outer loop
vertex -0.861803 -0.425324 -0.276396
vertex -0.670819 -0.688191 -0.276397
vertex -0.809018 -0.587783 0.000000
endloop
endfacet
facet normal -0.703826 -0.703824 -0.096235
outer loop
vertex -0.809018 -0.587783 0.000000
vertex -0.670819 -0.688191 -0.276397
vertex -0.587786 -0.809017 0.000000
endloop
endfacet
facet normal -0.578465 -0.796814 -0.174546
outer loop
vertex -0.670819 -0.688191 -0.276397
vertex -0.436007 -0.864188 -0.251152
vertex -0.587786 -0.809017 0.000000
endloop
endfacet
facet normal -0.896269 -0.274351 -0.348473
outer loop
vertex -0.956626 -0.147618 -0.251149
vertex -0.831051 -0.238853 -0.502299
vertex -0.861803 -0.425324 -0.276396
endloop
endfacet
facet normal -0.803908 -0.400307 -0.439871
outer loop
vertex -0.831051 -0.238853 -0.502299
vertex -0.688189 -0.499997 -0.525736
vertex -0.861803 -0.425324 -0.276396
endloop
endfacet
facet normal -0.754416 -0.548115 -0.361145
outer loop
vertex -0.861803 -0.425324 -0.276396
vertex -0.688189 -0.499997 -0.525736
vertex -0.670819 -0.688191 -0.276397
endloop
endfacet
facet normal -0.629137 -0.640858 -0.439872
outer loop
vertex -0.688189 -0.499997 -0.525736
vertex -0.483971 -0.716565 -0.502302
vertex -0.670819 -0.688191 -0.276397
endloop
endfacet
facet normal -0.537885 -0.767622 -0.348476
outer loop
vertex -0.670819 -0.688191 -0.276397
vertex -0.483971 -0.716565 -0.502302
vertex -0.436007 -0.864188 -0.251152
endloop
endfacet
facet normal -0.420607 -0.814945 -0.398689
outer loop
vertex -0.483971 -0.716565 -0.502302
vertex -0.276388 -0.850649 -0.447220
vertex -0.436007 -0.864188 -0.251152
endloop
endfacet
facet normal 0.294548 -0.906533 0.302388
outer loop
vertex 0.155215 -0.955422 0.251152
vertex 0.436007 -0.864188 0.251152
vertex 0.276388 -0.850649 0.447220
endloop
endfacet
facet normal 0.155953 -0.984649 0.078388
outer loop
vertex 0.000000 -1.000000 -0.000000
vertex 0.309017 -0.951056 0.000000
vertex 0.155215 -0.955422 0.251152
endloop
endfacet
facet normal -0.000363 -0.984649 -0.174545
outer loop
vertex -0.155215 -0.955422 -0.251152
vertex 0.138199 -0.951055 -0.276398
vertex 0.000000 -1.000000 -0.000000
endloop
endfacet
facet normal 0.304507 -0.937183 0.170186
outer loop
vertex 0.155215 -0.955422 0.251152
vertex 0.309017 -0.951056 0.000000
vertex 0.436007 -0.864188 0.251152
endloop
endfacet
facet normal 0.452594 -0.888265 0.078389
outer loop
vertex 0.309017 -0.951056 0.000000
vertex 0.587786 -0.809017 0.000000
vertex 0.436007 -0.864188 0.251152
endloop
endfacet
facet normal 0.155708 -0.983104 -0.096235
outer loop
vertex 0.000000 -1.000000 -0.000000
vertex 0.138199 -0.951055 -0.276398
vertex 0.309017 -0.951056 0.000000
endloop
endfacet
facet normal 0.303534 -0.934171 -0.187594
outer loop
vertex 0.138199 -0.951055 -0.276398
vertex 0.447216 -0.850648 -0.276398
vertex 0.309017 -0.951056 0.000000
endloop
endfacet
facet normal 0.451884 -0.886871 -0.096236
outer loop
vertex 0.309017 -0.951056 0.000000
vertex 0.447216 -0.850648 -0.276398
vertex 0.587786 -0.809017 0.000000
endloop
endfacet
facet normal 0.579061 -0.796381 -0.174545
outer loop
vertex 0.447216 -0.850648 -0.276398
vertex 0.687159 -0.681715 -0.251152
vertex 0.587786 -0.809017 0.000000
endloop
endfacet
facet normal -0.016035 -0.937181 -0.348475
outer loop
vertex -0.155215 -0.955422 -0.251152
vertex -0.029639 -0.864184 -0.502302
vertex 0.138199 -0.951055 -0.276398
endloop
endfacet
facet normal 0.132300 -0.888262 -0.439872
outer loop
vertex -0.029639 -0.864184 -0.502302
vertex 0.262869 -0.809012 -0.525738
vertex 0.138199 -0.951055 -0.276398
endloop
endfacet
facet normal 0.288164 -0.886868 -0.361147
outer loop
vertex 0.138199 -0.951055 -0.276398
vertex 0.262869 -0.809012 -0.525738
vertex 0.447216 -0.850648 -0.276398
endloop
endfacet
facet normal 0.415083 -0.796379 -0.439872
outer loop
vertex 0.262869 -0.809012 -0.525738
vertex 0.531941 -0.681712 -0.502302
vertex 0.447216 -0.850648 -0.276398
endloop
endfacet
facet normal 0.563838 -0.748766 -0.348477
outer loop
vertex 0.447216 -0.850648 -0.276398
vertex 0.531941 -0.681712 -0.502302
vertex 0.687159 -0.681715 -0.251152
endloop
endfacet
facet normal 0.645086 -0.651852 -0.398689
outer loop
vertex 0.531941 -0.681712 -0.502302
vertex 0.723607 -0.525725 -0.447220
vertex 0.687159 -0.681715 -0.251152
endloop
endfacet
facet normal 0.953185 0.000000 0.302386
outer loop
vertex 0.956626 -0.147618 0.251149
vertex 0.956626 0.147618 0.251149
vertex 0.894426 0.000000 0.447216
endloop
endfacet
facet normal 0.984649 -0.155951 0.078388
outer loop
vertex 0.951058 -0.309013 -0.000000
vertex 1.000000 0.000000 0.000000
vertex 0.956626 -0.147618 0.251149
endloop
endfacet
facet normal 0.936345 -0.304618 -0.174544
outer loop
vertex 0.860698 -0.442858 -0.251151
vertex 0.947213 -0.162458 -0.276396
vertex 0.951058 -0.309013 -0.000000
endloop
endfacet
facet normal 0.985412 0.000000 0.170184
outer loop
vertex 0.956626 -0.147618 0.251149
vertex 1.000000 0.000000 0.000000
vertex 0.956626 0.147618 0.251149
endloop
endfacet
facet normal 0.984649 0.155951 0.078388
outer loop
vertex 1.000000 0.000000 0.000000
vertex 0.951058 0.309013 0.000000
vertex 0.956626 0.147618 0.251149
endloop
endfacet
facet normal 0.983104 -0.155706 -0.096236
outer loop
vertex 0.951058 -0.309013 -0.000000
vertex 0.947213 -0.162458 -0.276396
vertex 1.000000 0.000000 0.000000
endloop
endfacet
facet normal 0.982247 0.000000 -0.187592
outer loop
vertex 0.947213 -0.162458 -0.276396
vertex 0.947213 0.162458 -0.276396
vertex 1.000000 0.000000 0.000000
endloop
endfacet
facet normal 0.983104 0.155706 -0.096236
outer loop
vertex 1.000000 0.000000 0.000000
vertex 0.947213 0.162458 -0.276396
vertex 0.951058 0.309013 0.000000
endloop
endfacet
facet normal 0.936345 0.304618 -0.174544
outer loop
vertex 0.947213 0.162458 -0.276396
vertex 0.860698 0.442858 -0.251151
vertex 0.951058 0.309013 0.000000
endloop
endfacet
facet normal 0.886357 -0.304854 -0.348476
outer loop
vertex 0.860698 -0.442858 -0.251151
vertex 0.812729 -0.295238 -0.502301
vertex 0.947213 -0.162458 -0.276396
endloop
endfacet
facet normal 0.885671 -0.148666 -0.439870
outer loop
vertex 0.812729 -0.295238 -0.502301
vertex 0.850648 0.000000 -0.525736
vertex 0.947213 -0.162458 -0.276396
endloop
endfacet
facet normal 0.932509 0.000000 -0.361146
outer loop
vertex 0.947213 -0.162458 -0.276396
vertex 0.850648 0.000000 -0.525736
vertex 0.947213 0.162458 -0.276396
endloop
endfacet
facet normal 0.885671 0.148666 -0.439870
outer loop
vertex 0.850648 0.000000 -0.525736
vertex 0.812729 0.295238 -0.502301
vertex 0.947213 0.162458 -0.276396
endloop
endfacet
facet normal 0.886357 0.304854 -0.348476
outer loop
vertex 0.947213 0.162458 -0.276396
vertex 0.812729 0.295238 -0.502301
vertex 0.860698 0.442858 -0.251151
endloop
endfacet
facet normal 0.819296 0.412072 -0.398687
outer loop
vertex 0.812729 0.295238 -0.502301
vertex 0.723607 0.525725 -0.447220
vertex 0.860698 0.442858 -0.251151
endloop
endfacet
facet normal 0.615326 0.560263 -0.554509
outer loop
vertex 0.609547 0.442856 -0.657519
vertex 0.531941 0.681712 -0.502302
vertex 0.723607 0.525725 -0.447220
endloop
endfacet
facet normal 0.467353 0.452587 -0.759438
outer loop
vertex 0.425323 0.309011 -0.850654
vertex 0.361803 0.587779 -0.723612
vertex 0.609547 0.442856 -0.657519
endloop
endfacet
facet normal 0.262728 0.303921 -0.915754
outer loop
vertex 0.203181 0.147618 -0.967950
vertex 0.138197 0.425321 -0.894429
vertex 0.425323 0.309011 -0.850654
endloop
endfacet
facet normal 0.508743 0.579205 -0.636948
outer loop
vertex 0.609547 0.442856 -0.657519
vertex 0.361803 0.587779 -0.723612
vertex 0.531941 0.681712 -0.502302
endloop
endfacet
facet normal 0.385368 0.704925 -0.595460
outer loop
vertex 0.361803 0.587779 -0.723612
vertex 0.262869 0.809012 -0.525738
vertex 0.531941 0.681712 -0.502302
endloop
endfacet
facet normal 0.310547 0.451878 -0.836281
outer loop
vertex 0.425323 0.309011 -0.850654
vertex 0.138197 0.425321 -0.894429
vertex 0.361803 0.587779 -0.723612
endloop
endfacet
facet normal 0.187594 0.577345 -0.794658
outer loop
vertex 0.138197 0.425321 -0.894429
vertex 0.052789 0.688186 -0.723611
vertex 0.361803 0.587779 -0.723612
endloop
endfacet
facet normal 0.228688 0.703820 -0.672562
outer loop
vertex 0.361803 0.587779 -0.723612
vertex 0.052789 0.688186 -0.723611
vertex 0.262869 0.809012 -0.525738
endloop
endfacet
facet normal 0.102585 0.796808 -0.595460
outer loop
vertex 0.052789 0.688186 -0.723611
vertex -0.029639 0.864184 -0.502302
vertex 0.262869 0.809012 -0.525738
endloop
endfacet
facet normal 0.089144 0.274350 -0.957489
outer loop
vertex 0.203181 0.147618 -0.967950
vertex -0.077607 0.238853 -0.967950
vertex 0.138197 0.425321 -0.894429
endloop
endfacet
facet normal -0.033908 0.400305 -0.915754
outer loop
vertex -0.077607 0.238853 -0.967950
vertex -0.162456 0.499995 -0.850654
vertex 0.138197 0.425321 -0.894429
endloop
endfacet
facet normal 0.014374 0.548113 -0.836281
outer loop
vertex 0.138197 0.425321 -0.894429
vertex -0.162456 0.499995 -0.850654
vertex 0.052789 0.688186 -0.723611
endloop
endfacet
facet normal -0.112065 0.640855 -0.759438
outer loop
vertex -0.162456 0.499995 -0.850654
vertex -0.232822 0.716563 -0.657519
vertex 0.052789 0.688186 -0.723611
endloop
endfacet
facet normal -0.071126 0.767619 -0.636947
outer loop
vertex 0.052789 0.688186 -0.723611
vertex -0.232822 0.716563 -0.657519
vertex -0.029639 0.864184 -0.502302
endloop
endfacet
facet normal -0.168486 0.814943 -0.554509
outer loop
vertex -0.232822 0.716563 -0.657519
vertex -0.276388 0.850649 -0.447220
vertex -0.029639 0.864184 -0.502302
endloop
endfacet
facet normal -0.342698 0.758339 -0.554509
outer loop
vertex -0.232822 0.716563 -0.657519
vertex -0.483971 0.716565 -0.502302
vertex -0.276388 0.850649 -0.447220
endloop
endfacet
facet normal -0.286018 0.584335 -0.759438
outer loop
vertex -0.162456 0.499995 -0.850654
vertex -0.447211 0.525727 -0.723612
vertex -0.232822 0.716563 -0.657519
endloop
endfacet
facet normal -0.207860 0.343785 -0.915754
outer loop
vertex -0.077607 0.238853 -0.967950
vertex -0.361801 0.262863 -0.894429
vertex -0.162456 0.499995 -0.850654
endloop
endfacet
facet normal -0.393647 0.662826 -0.636948
outer loop
vertex -0.232822 0.716563 -0.657519
vertex -0.447211 0.525727 -0.723612
vertex -0.483971 0.716565 -0.502302
endloop
endfacet
facet normal -0.551343 0.584336 -0.595460
outer loop
vertex -0.447211 0.525727 -0.723612
vertex -0.688189 0.499997 -0.525736
vertex -0.483971 0.716565 -0.502302
endloop
endfacet
facet normal -0.333799 0.434985 -0.836282
outer loop
vertex -0.162456 0.499995 -0.850654
vertex -0.361801 0.262863 -0.894429
vertex -0.447211 0.525727 -0.723612
endloop
endfacet
facet normal -0.491122 0.356818 -0.794657
outer loop
vertex -0.361801 0.262863 -0.894429
vertex -0.638195 0.262863 -0.723609
vertex -0.447211 0.525727 -0.723612
endloop
endfacet
facet normal -0.598706 0.434985 -0.672561
outer loop
vertex -0.447211 0.525727 -0.723612
vertex -0.638195 0.262863 -0.723609
vertex -0.688189 0.499997 -0.525736
endloop
endfacet
facet normal -0.726114 0.343786 -0.595458
outer loop
vertex -0.638195 0.262863 -0.723609
vertex -0.831051 0.238853 -0.502299
vertex -0.688189 0.499997 -0.525736
endloop
endfacet
facet normal -0.233376 0.169558 -0.957489
outer loop
vertex -0.077607 0.238853 -0.967950
vertex -0.251147 0.000000 -0.967949
vertex -0.361801 0.262863 -0.894429
endloop
endfacet
facet normal -0.391194 0.091450 -0.915753
outer loop
vertex -0.251147 0.000000 -0.967949
vertex -0.525730 0.000000 -0.850652
vertex -0.361801 0.262863 -0.894429
endloop
endfacet
facet normal -0.516846 0.183045 -0.836280
outer loop
vertex -0.361801 0.262863 -0.894429
vertex -0.525730 0.000000 -0.850652
vertex -0.638195 0.262863 -0.723609
endloop
endfacet
facet normal -0.644125 0.091450 -0.759434
outer loop
vertex -0.525730 0.000000 -0.850652
vertex -0.753442 0.000000 -0.657515
vertex -0.638195 0.262863 -0.723609
endloop
endfacet
facet normal -0.752032 0.169558 -0.636944
outer loop
vertex -0.638195 0.262863 -0.723609
vertex -0.753442 0.000000 -0.657515
vertex -0.831051 0.238853 -0.502299
endloop
endfacet
facet normal -0.827125 0.091586 -0.554505
outer loop
vertex -0.753442 0.000000 -0.657515
vertex -0.894426 0.000000 -0.447216
vertex -0.831051 0.238853 -0.502299
endloop
endfacet
facet normal -0.827125 -0.091586 -0.554505
outer loop
vertex -0.753442 0.000000 -0.657515
vertex -0.831051 -0.238853 -0.502299
vertex -0.894426 0.000000 -0.447216
endloop
endfacet
facet normal -0.644125 -0.091451 -0.759434
outer loop
vertex -0.525730 0.000000 -0.850652
vertex -0.638195 -0.262864 -0.723609
vertex -0.753442 0.000000 -0.657515
endloop
endfacet
facet normal -0.391194 -0.091451 -0.915753
outer loop
vertex -0.251147 0.000000 -0.967949
vertex -0.361801 -0.262864 -0.894428
vertex -0.525730 0.000000 -0.850652
endloop
endfacet
facet normal -0.752031 -0.169559 -0.636945
outer loop
vertex -0.753442 0.000000 -0.657515
vertex -0.638195 -0.262864 -0.723609
vertex -0.831051 -0.238853 -0.502299
endloop
endfacet
facet normal -0.726114 -0.343786 -0.595458
outer loop
vertex -0.638195 -0.262864 -0.723609
vertex -0.688189 -0.499997 -0.525736
vertex -0.831051 -0.238853 -0.502299
endloop
endfacet
facet normal -0.516846 -0.183046 -0.836280
outer loop
vertex -0.525730 0.000000 -0.850652
vertex -0.361801 -0.262864 -0.894428
vertex -0.638195 -0.262864 -0.723609
endloop
endfacet
facet normal -0.491122 -0.356820 -0.794656
outer loop
vertex -0.361801 -0.262864 -0.894428
vertex -0.447211 -0.525729 -0.723610
vertex -0.638195 -0.262864 -0.723609
endloop
endfacet
facet normal -0.598706 -0.434986 -0.672561
outer loop
vertex -0.638195 -0.262864 -0.723609
vertex -0.447211 -0.525729 -0.723610
vertex -0.688189 -0.499997 -0.525736
endloop
endfacet
facet normal -0.551343 -0.584337 -0.595459
outer loop
vertex -0.447211 -0.525729 -0.723610
vertex -0.483971 -0.716565 -0.502302
vertex -0.688189 -0.499997 -0.525736
endloop
endfacet
facet normal -0.233377 -0.169558 -0.957489
outer loop
vertex -0.251147 0.000000 -0.967949
vertex -0.077607 -0.238853 -0.967950
vertex -0.361801 -0.262864 -0.894428
endloop
endfacet
facet normal -0.207860 -0.343785 -0.915754
outer loop
vertex -0.077607 -0.238853 -0.967950
vertex -0.162456 -0.499995 -0.850654
vertex -0.361801 -0.262864 -0.894428
endloop
endfacet
facet normal -0.333798 -0.434986 -0.836281
outer loop
vertex -0.361801 -0.262864 -0.894428
vertex -0.162456 -0.499995 -0.850654
vertex -0.447211 -0.525729 -0.723610
endloop
endfacet
facet normal -0.286018 -0.584335 -0.759438
outer loop
vertex -0.162456 -0.499995 -0.850654
vertex -0.232822 -0.716563 -0.657519
vertex -0.447211 -0.525729 -0.723610
endloop
endfacet
facet normal -0.393647 -0.662827 -0.636948
outer loop
vertex -0.447211 -0.525729 -0.723610
vertex -0.232822 -0.716563 -0.657519
vertex -0.483971 -0.716565 -0.502302
endloop
endfacet
facet normal -0.342698 -0.758339 -0.554509
outer loop
vertex -0.232822 -0.716563 -0.657519
vertex -0.276388 -0.850649 -0.447220
vertex -0.483971 -0.716565 -0.502302
endloop
endfacet
facet normal 0.722992 0.412071 -0.554509
outer loop
vertex 0.812729 0.295238 -0.502301
vertex 0.609547 0.442856 -0.657519
vertex 0.723607 0.525725 -0.447220
endloop
endfacet
facet normal 0.789510 0.148666 -0.595460
outer loop
vertex 0.850648 0.000000 -0.525736
vertex 0.670817 0.162457 -0.723611
vertex 0.812729 0.295238 -0.502301
endloop
endfacet
facet normal 0.789511 -0.148667 -0.595459
outer loop
vertex 0.812729 -0.295238 -0.502301
vertex 0.670818 -0.162458 -0.723610
vertex 0.850648 0.000000 -0.525736
endloop
endfacet
facet normal 0.708071 0.304853 -0.636946
outer loop
vertex 0.812729 0.295238 -0.502301
vertex 0.670817 0.162457 -0.723611
vertex 0.609547 0.442856 -0.657519
endloop
endfacet
facet normal 0.574859 0.304617 -0.759438
outer loop
vertex 0.670817 0.162457 -0.723611
vertex 0.425323 0.309011 -0.850654
vertex 0.609547 0.442856 -0.657519
endloop
endfacet
facet normal 0.740043 0.000000 -0.672560
outer loop
vertex 0.850648 0.000000 -0.525736
vertex 0.670818 -0.162458 -0.723610
vertex 0.670817 0.162457 -0.723611
endloop
endfacet
facet normal 0.607058 -0.000000 -0.794658
outer loop
vertex 0.670818 -0.162458 -0.723610
vertex 0.447211 -0.000001 -0.894428
vertex 0.670817 0.162457 -0.723611
endloop
endfacet
facet normal 0.525729 0.155705 -0.836281
outer loop
vertex 0.670817 0.162457 -0.723611
vertex 0.447211 -0.000001 -0.894428
vertex 0.425323 0.309011 -0.850654
endloop
endfacet
facet normal 0.370234 0.155950 -0.915754
outer loop
vertex 0.447211 -0.000001 -0.894428
vertex 0.203181 0.147618 -0.967950
vertex 0.425323 0.309011 -0.850654
endloop
endfacet
facet normal 0.708071 -0.304854 -0.636946
outer loop
vertex 0.812729 -0.295238 -0.502301
vertex 0.609547 -0.442856 -0.657519
vertex 0.670818 -0.162458 -0.723610
endloop
endfacet
facet normal 0.574858 -0.304618 -0.759438
outer loop
vertex 0.609547 -0.442856 -0.657519
vertex 0.425323 -0.309011 -0.850654
vertex 0.670818 -0.162458 -0.723610
endloop
endfacet
facet normal 0.525729 -0.155706 -0.836280
outer loop
vertex 0.670818 -0.162458 -0.723610
vertex 0.425323 -0.309011 -0.850654
vertex 0.447211 -0.000001 -0.894428
endloop
endfacet
facet normal 0.370234 -0.155950 -0.915754
outer loop
vertex 0.425323 -0.309011 -0.850654
vertex 0.203181 -0.147618 -0.967950
vertex 0.447211 -0.000001 -0.894428
endloop
endfacet
facet normal 0.288471 0.000000 -0.957489
outer loop
vertex 0.447211 -0.000001 -0.894428
vertex 0.203181 -0.147618 -0.967950
vertex 0.203181 0.147618 -0.967950
endloop
endfacet
facet normal 0.155817 0.000000 -0.987786
outer loop
vertex 0.203181 -0.147618 -0.967950
vertex 0.000000 0.000000 -1.000000
vertex 0.203181 0.147618 -0.967950
endloop
endfacet
facet normal -0.168486 -0.814943 -0.554509
outer loop
vertex -0.232822 -0.716563 -0.657519
vertex -0.029639 -0.864184 -0.502302
vertex -0.276388 -0.850649 -0.447220
endloop
endfacet
facet normal -0.112065 -0.640855 -0.759438
outer loop
vertex -0.162456 -0.499995 -0.850654
vertex 0.052790 -0.688185 -0.723612
vertex -0.232822 -0.716563 -0.657519
endloop
endfacet
facet normal -0.033907 -0.400305 -0.915754
outer loop
vertex -0.077607 -0.238853 -0.967950
vertex 0.138199 -0.425321 -0.894429
vertex -0.162456 -0.499995 -0.850654
endloop
endfacet
facet normal -0.071125 -0.767618 -0.636948
outer loop
vertex -0.232822 -0.716563 -0.657519
vertex 0.052790 -0.688185 -0.723612
vertex -0.029639 -0.864184 -0.502302
endloop
endfacet
facet normal 0.102585 -0.796808 -0.595460
outer loop
vertex 0.052790 -0.688185 -0.723612
vertex 0.262869 -0.809012 -0.525738
vertex -0.029639 -0.864184 -0.502302
endloop
endfacet
facet normal 0.014375 -0.548112 -0.836282
outer loop
vertex -0.162456 -0.499995 -0.850654
vertex 0.138199 -0.425321 -0.894429
vertex 0.052790 -0.688185 -0.723612
endloop
endfacet
facet normal 0.187595 -0.577345 -0.794658
outer loop
vertex 0.138199 -0.425321 -0.894429
vertex 0.361805 -0.587779 -0.723611
vertex 0.052790 -0.688185 -0.723612
endloop
endfacet
facet normal 0.228689 -0.703819 -0.672562
outer loop
vertex 0.052790 -0.688185 -0.723612
vertex 0.361805 -0.587779 -0.723611
vertex 0.262869 -0.809012 -0.525738
endloop
endfacet
facet normal 0.385368 -0.704925 -0.595460
outer loop
vertex 0.361805 -0.587779 -0.723611
vertex 0.531941 -0.681712 -0.502302
vertex 0.262869 -0.809012 -0.525738
endloop
endfacet
facet normal 0.089144 -0.274350 -0.957489
outer loop
vertex -0.077607 -0.238853 -0.967950
vertex 0.203181 -0.147618 -0.967950
vertex 0.138199 -0.425321 -0.894429
endloop
endfacet
facet normal 0.262729 -0.303920 -0.915754
outer loop
vertex 0.203181 -0.147618 -0.967950
vertex 0.425323 -0.309011 -0.850654
vertex 0.138199 -0.425321 -0.894429
endloop
endfacet
facet normal 0.310548 -0.451878 -0.836281
outer loop
vertex 0.138199 -0.425321 -0.894429
vertex 0.425323 -0.309011 -0.850654
vertex 0.361805 -0.587779 -0.723611
endloop
endfacet
facet normal 0.467354 -0.452587 -0.759438
outer loop
vertex 0.425323 -0.309011 -0.850654
vertex 0.609547 -0.442856 -0.657519
vertex 0.361805 -0.587779 -0.723611
endloop
endfacet
facet normal 0.508744 -0.579205 -0.636947
outer loop
vertex 0.361805 -0.587779 -0.723611
vertex 0.609547 -0.442856 -0.657519
vertex 0.531941 -0.681712 -0.502302
endloop
endfacet
facet normal 0.615326 -0.560263 -0.554509
outer loop
vertex 0.609547 -0.442856 -0.657519
vertex 0.723607 -0.525725 -0.447220
vertex 0.531941 -0.681712 -0.502302
endloop
endfacet
endsolid Exported from Blender-2.80 (sub 75)
//+
Surface Loop(1) = {1};
//+
Volume(1) = {1};
