# Blender v3.0.0 OBJ File: 'Pill.blend'
# www.blender.org
mtllib PillSubdivided.mtl
o Sphere_Sphere.001
v 0.000000 0.752227 -1.364887
v 0.000000 0.637707 -1.641363
v 0.000000 0.426103 -1.852968
v 0.000000 0.149627 -1.967488
v 0.000000 -0.426102 -1.852968
v 0.000000 -0.637708 -1.641363
v 0.057260 0.752227 -1.353498
v 0.163062 0.637707 -1.608928
v 0.244040 0.426103 -1.804425
v 0.287865 0.149627 -1.910228
v 0.287865 -0.149627 -1.910228
v 0.244040 -0.426102 -1.804425
v 0.163062 -0.637708 -1.608928
v 0.057260 -0.752227 -1.353498
v 0.105803 0.752227 -1.321063
v 0.301300 0.637707 -1.516560
v 0.450927 0.426103 -1.666187
v 0.531905 0.149627 -1.747165
v 0.531905 -0.149627 -1.747165
v 0.450927 -0.426102 -1.666187
v 0.301300 -0.637708 -1.516560
v 0.105803 -0.752227 -1.321063
v 0.138238 0.752227 -1.272520
v 0.393667 0.637707 -1.378323
v 0.589165 0.426103 -1.459300
v 0.694967 0.149627 -1.503125
v 0.694967 -0.149627 -1.503125
v 0.589165 -0.426102 -1.459300
v 0.393667 -0.637708 -1.378323
v 0.138238 -0.752227 -1.272520
v 0.149627 0.752227 -1.215260
v 0.426102 0.637707 -1.215260
v 0.637707 0.426103 -1.215260
v 0.752227 0.149627 -1.215260
v 0.752227 -0.149627 -1.215260
v 0.637707 -0.426102 -1.215260
v 0.426102 -0.637708 -1.215260
v 0.149627 -0.752227 -1.215260
v -0.000000 0.766964 -1.215260
v -0.149627 0.752227 -1.215260
v -0.426102 0.637707 -1.215260
v -0.637707 0.426103 -1.215260
v -0.752227 0.149627 -1.215260
v -0.752227 -0.149627 -1.215260
v -0.637707 -0.426102 -1.215260
v -0.426102 -0.637708 -1.215260
v -0.149627 -0.752227 -1.215260
v -0.138238 0.752227 -1.272520
v -0.393667 0.637707 -1.378323
v -0.589165 0.426103 -1.459300
v -0.694967 0.149627 -1.503125
v -0.694967 -0.149627 -1.503125
v -0.589165 -0.426102 -1.459300
v -0.393667 -0.637708 -1.378323
v -0.138238 -0.752227 -1.272520
v -0.105802 0.752227 -1.321063
v -0.301300 0.637707 -1.516560
v -0.450927 0.426103 -1.666187
v -0.531905 0.149627 -1.747165
v -0.531905 -0.149627 -1.747165
v -0.450927 -0.426102 -1.666187
v -0.301300 -0.637708 -1.516560
v -0.105802 -0.752227 -1.321063
v -0.057260 0.752227 -1.353498
v -0.163062 0.637707 -1.608927
v -0.244040 0.426103 -1.804425
v -0.287865 0.149627 -1.910227
v -0.287865 -0.149627 -1.910227
v -0.244040 -0.426102 -1.804425
v -0.163062 -0.637708 -1.608927
v -0.057260 -0.752227 -1.353498
v 0.000000 -0.149627 -1.967487
v 0.000000 -0.752227 -1.364887
v 0.000000 -0.766964 -1.215260
v -0.000001 0.869713 1.253868
v -0.000000 0.766964 0.091868
v -0.000000 -0.766964 0.091868
v 0.169672 0.853001 0.155038
v 0.483186 0.723140 0.155038
v 0.723139 0.483187 0.155038
v 0.853001 0.169673 0.155038
v 0.853001 -0.169672 0.155038
v 0.723139 -0.483186 0.155038
v 0.483186 -0.723140 0.155038
v 0.169672 -0.853001 0.155038
v 0.169672 0.853001 1.253868
v 0.483186 0.723140 1.253868
v 0.723139 0.483187 1.253868
v 0.853001 0.169673 1.253868
v 0.853001 -0.169672 1.253868
v 0.723139 -0.483186 1.253868
v 0.483186 -0.723140 1.253868
v 0.169672 -0.853001 1.253868
v 0.156756 0.853001 1.318798
v 0.446405 0.723140 1.438775
v 0.668093 0.483187 1.530601
v 0.788070 0.169673 1.580297
v 0.788070 -0.169672 1.580297
v 0.668093 -0.483186 1.530601
v 0.446405 -0.723140 1.438775
v 0.156756 -0.853001 1.318798
v 0.119976 0.853001 1.373844
v 0.341664 0.723140 1.595532
v 0.511336 0.483187 1.765204
v 0.603162 0.169673 1.857031
v 0.603162 -0.169672 1.857031
v 0.511336 -0.483186 1.765204
v 0.341664 -0.723140 1.595532
v 0.119976 -0.853001 1.373844
v 0.064930 0.853001 1.410625
v 0.184907 0.723140 1.700274
v 0.276733 0.483187 1.921961
v 0.326429 0.169673 2.041938
v 0.326429 -0.169672 2.041938
v 0.276733 -0.483186 1.921961
v 0.184907 -0.723140 1.700274
v 0.064930 -0.853001 1.410625
v -0.000001 0.853001 1.423540
v -0.000001 0.723140 1.737054
v -0.000001 0.483187 1.977007
v -0.000001 0.169673 2.106869
v -0.000001 -0.169672 2.106869
v -0.000001 -0.483186 1.977007
v -0.000001 -0.723140 1.737054
v -0.000001 -0.853001 1.423540
v -0.064932 0.853001 1.410625
v -0.184908 0.723140 1.700274
v -0.276734 0.483187 1.921961
v -0.326430 0.169673 2.041938
v -0.326430 -0.169672 2.041938
v -0.276734 -0.483186 1.921961
v -0.184908 -0.723140 1.700274
v -0.064932 -0.853001 1.410625
v -0.119977 0.853001 1.373844
v -0.341665 0.723140 1.595532
v -0.511337 0.483187 1.765204
v -0.603164 0.169673 1.857030
v -0.603164 -0.169672 1.857030
v -0.511337 -0.483186 1.765204
v -0.341665 -0.723140 1.595532
v -0.119977 -0.853001 1.373844
v -0.000001 0.869713 1.253868
v -0.156758 0.853001 1.318798
v -0.446407 0.723140 1.438775
v -0.668094 0.483187 1.530601
v -0.788071 0.169673 1.580297
v -0.788071 -0.169672 1.580297
v -0.668094 -0.483186 1.530601
v -0.446407 -0.723140 1.438775
v -0.169673 0.853001 0.155038
v -0.483187 0.723140 0.155038
v -0.723140 0.483187 0.155038
v -0.853001 0.169673 0.155038
v -0.853001 -0.169672 0.155038
v -0.723140 -0.483186 0.155038
v -0.483187 -0.723140 0.155038
v -0.169673 -0.853001 0.155038
v -0.000001 -0.869713 1.253868
v -0.156758 -0.853001 1.318798
v -0.169673 0.853001 1.253868
v -0.483187 0.723140 1.253868
v -0.723140 0.483187 1.253868
v -0.853002 0.169673 1.253867
v -0.853002 -0.169672 1.253867
v -0.723140 -0.483186 1.253868
v -0.483187 -0.723140 1.253868
v -0.169673 -0.853001 1.253868
v -0.000001 -0.869713 1.253868
v 0.149627 0.752227 0.000791
v 0.426102 0.637708 0.000791
v 0.637707 0.426103 0.000791
v 0.752227 0.149627 0.000791
v 0.752227 -0.149627 0.000791
v 0.637707 -0.426102 0.000791
v 0.426102 -0.637707 0.000791
v 0.149627 -0.752227 0.000791
v -0.149628 0.752227 0.000791
v -0.426103 0.637708 0.000791
v -0.637708 0.426103 0.000791
v -0.752227 0.149627 0.000791
v -0.752227 -0.149627 0.000791
v -0.637708 -0.426102 0.000791
v -0.426103 -0.637707 0.000791
v -0.149628 -0.752227 0.000791
vt 0.812500 0.812500
vt 0.750000 0.812500
vt 0.750000 0.687500
vt 0.812500 0.687500
vt 0.687500 0.812500
vt 0.750000 0.937500
vt 0.687500 0.937500
vt 0.734375 0.000000
vt 0.750000 0.062500
vt 0.687500 0.062500
vt 0.625000 0.437500
vt 0.687500 0.437500
vt 0.687500 0.562500
vt 0.625000 0.562500
vt 0.812500 0.312500
vt 0.750000 0.312500
vt 0.750000 0.187500
vt 0.812500 0.187500
vt 0.687500 0.687500
vt 0.687500 0.187500
vt 0.687500 0.312500
vt 0.625000 0.312500
vt 0.750000 0.562500
vt 0.562500 0.812500
vt 0.625000 0.812500
vt 0.625000 0.937500
vt 0.562500 0.937500
vt 0.640625 1.000000
vt 0.750000 0.437500
vt 0.562500 0.437500
vt 0.562500 0.562500
vt 0.625000 0.187500
vt 0.625000 0.062500
vt 0.562500 0.187500
vt 0.562500 0.312500
vt 0.562500 0.687500
vt 0.625000 0.687500
vt 0.500000 0.437500
vt 0.500000 0.562500
vt 0.562500 0.062500
vt 0.500000 0.687500
vt 0.578125 1.000000
vt 0.671875 0.000000
vt 0.500000 0.812500
vt 0.500000 0.937500
vt 0.500000 0.187500
vt 0.500000 0.312500
vt 0.500000 0.562500
vt 0.500000 0.437500
vt 0.500000 0.062500
vt 0.500000 0.687500
vt 0.609375 0.000000
vt 0.515625 1.000000
vt 0.500000 0.937500
vt 0.500000 0.812500
vt 0.500000 0.312500
vt 1.000000 0.437500
vt 1.000000 0.312500
vt 1.000000 0.312500
vt 1.000000 0.437500
vt 0.875000 0.687500
vt 0.937500 0.687500
vt 0.937500 0.812500
vt 0.875000 0.812500
vt 1.000000 0.687500
vt 1.000000 0.562500
vt 1.000000 0.562500
vt 1.000000 0.687500
vt 0.500000 0.187500
vt 0.453125 1.000000
vt 0.437500 0.937500
vt 0.500000 0.937500
vt 0.937500 0.937500
vt 0.875000 0.937500
vt 0.984375 0.000000
vt 1.000000 0.062500
vt 1.000000 0.062500
vt 0.375000 0.437500
vt 0.437500 0.437500
vt 0.437500 0.562500
vt 0.375000 0.562500
vt 0.546875 0.000000
vt 0.953125 1.000000
vt 1.000000 0.937500
vt 1.000000 0.812500
vt 1.000000 0.812500
vt 1.000000 0.937500
vt 0.500000 0.062500
vt 0.937500 0.062500
vt 1.000000 0.187500
vt 0.937500 0.187500
vt 0.500000 0.187500
vt 0.500000 0.062500
vt 0.500000 0.437500
vt 0.500000 0.437500
vt 0.500000 0.312500
vt 0.500000 0.312500
vt 0.984375 0.000000
vt 0.812500 0.937500
vt 0.875000 0.062500
vt 0.875000 0.187500
vt 0.937500 0.312500
vt 0.875000 0.312500
vt 0.875000 0.562500
vt 0.937500 0.562500
vt 0.937500 0.437500
vt 0.875000 0.437500
vt 0.812500 0.437500
vt 0.812500 0.562500
vt 0.515625 0.000000
vt 0.375000 0.812500
vt 0.437500 0.812500
vt 0.375000 0.937500
vt 1.000000 0.187500
vt 0.890625 1.000000
vt 0.812500 0.062500
vt 0.828125 1.000000
vt 0.515625 1.000000
vt 0.921875 0.000000
vt 0.796875 0.000000
vt 0.859375 0.000000
vt 0.765625 1.000000
vt 0.515625 1.000000
vt 0.500000 0.937500
vt 1.000000 0.062500
vt 1.000000 0.187500
vt 0.000000 0.062500
vt 1.000000 0.187500
vt 1.000000 0.312500
vt 0.000000 0.187500
vt 1.000000 0.312500
vt 0.515625 0.000000
vt 0.515625 0.000000
vt 0.500000 0.062500
vt 1.000000 0.437500
vt 0.000000 0.312500
vt 1.000000 0.437500
vt 0.500000 0.812500
vt 0.500000 0.687500
vt 0.500000 0.562500
vt 0.375000 0.687500
vt 0.437500 0.687500
vt 0.390625 1.000000
vt 0.484375 0.000000
vt 0.437500 0.062500
vt 0.312500 0.812500
vt 0.312500 0.937500
vt 0.375000 0.312500
vt 0.437500 0.312500
vt 0.312500 0.562500
vt 0.312500 0.687500
vt 0.375000 0.062500
vt 0.437500 0.187500
vt 0.375000 0.187500
vt 0.250000 0.437500
vt 0.312500 0.437500
vt 0.250000 0.562500
vt 0.312500 0.187500
vt 0.312500 0.312500
vt 0.328125 1.000000
vt 0.250000 0.812500
vt 0.250000 0.937500
vt 0.421875 0.000000
vt 0.312500 0.062500
vt 0.250000 0.687500
vt 0.250000 0.312500
vt 0.187500 0.437500
vt 0.187500 0.562500
vt 0.250000 0.187500
vt 0.187500 0.812500
vt 0.187500 0.937500
vt 0.359375 0.000000
vt 0.250000 0.062500
vt 0.187500 0.687500
vt 0.265625 1.000000
vt 0.187500 0.312500
vt 0.125000 0.437500
vt 0.125000 0.562500
vt 0.187500 0.187500
vt 0.296875 0.000000
vt 0.125000 0.812500
vt 0.125000 0.937500
vt 0.187500 0.062500
vt 0.125000 0.687500
vt 0.203125 1.000000
vt 0.062500 0.437500
vt 0.062500 0.562500
vt 0.125000 0.312500
vt 0.234375 0.000000
vt 0.062500 0.687500
vt 0.062500 0.812500
vt 0.062500 0.937500
vt 0.125000 0.062500
vt 0.125000 0.187500
vt 0.140625 1.000000
vt 0.000000 0.437500
vt 1.000000 0.562500
vt 0.062500 0.187500
vt 0.062500 0.312500
vt 0.000000 0.687500
vt 1.000000 0.812500
vt 0.062500 0.062500
vt 0.000000 0.562500
vt 1.000000 0.687500
vt 0.000000 0.812500
vt 1.000000 0.937500
vt 0.078125 1.000000
vt 0.171875 0.000000
vt 1.000000 0.687500
vt 1.000000 0.812500
vt 0.046875 0.000000
vt 1.000000 0.937500
vt 0.015625 1.000000
vt 0.000000 0.937500
vt 0.984375 1.000000
vt 0.984375 0.000000
vt 1.000000 0.062500
vt 1.000000 0.562500
vt 0.109375 0.000000
vt 0.500000 0.687500
vt 0.500000 0.812500
vt 0.515625 1.000000
vt 0.500000 0.187500
vt 0.500000 0.562500
vt 0.703125 1.000000
vt 0.984375 1.000000
vt 0.984375 1.000000
vt 0.984375 0.000000
vt 0.984375 1.000000
vt 0.515625 0.000000
vn -0.1393 0.7002 -0.7002
vn 0.0759 0.9212 -0.3816
vn 0.0195 -0.9950 -0.0980
vn 0.5556 0.0000 -0.8315
vn -0.1393 -0.7002 -0.7002
vn 0.1393 0.7002 -0.7002
vn 0.1393 -0.7002 -0.7002
vn 0.5147 -0.3764 -0.7703
vn 0.1807 0.3764 -0.9087
vn 0.3235 0.9212 -0.2161
vn 0.0555 0.9950 -0.0831
vn 0.1807 -0.3764 -0.9087
vn 0.8315 0.0000 -0.5556
vn 0.3966 -0.7002 -0.5936
vn 0.2161 -0.9212 -0.3235
vn 0.5936 -0.7002 -0.3966
vn 0.7703 -0.3764 -0.5147
vn 0.5936 0.7002 -0.3966
vn 0.9808 0.0000 -0.1951
vn 0.3235 -0.9212 -0.2161
vn 0.9087 0.3764 -0.1807
vn 0.0831 0.9950 -0.0555
vn 0.0555 -0.9950 -0.0831
vn 0.3816 0.9212 -0.0759
vn 0.7002 -0.7002 -0.1393
vn 0.9087 -0.3764 -0.1807
vn 0.7002 0.7002 -0.1393
vn 1.0000 0.0000 0.0000
vn 0.3816 -0.9212 -0.0759
vn 0.9239 0.3827 0.0000
vn 0.0831 -0.9950 -0.0555
vn 0.0980 0.9950 -0.0195
vn 0.3827 0.9239 0.0000
vn 0.9239 -0.3827 0.0000
vn 0.7071 0.7071 0.0000
vn -0.9239 -0.3827 -0.0000
vn -0.5936 0.7002 -0.3966
vn -0.9239 0.3827 -0.0000
vn 0.7071 -0.7071 0.0000
vn 0.0980 0.9950 0.0195
vn -0.3235 0.9212 -0.2161
vn -0.0980 -0.9952 -0.0000
vn 0.8315 0.0000 0.5556
vn 0.0980 -0.9950 -0.0195
vn -0.0980 0.9950 -0.0195
vn -0.3827 0.9239 -0.0000
vn 0.3827 -0.9239 0.0000
vn -0.3816 -0.9212 -0.0759
vn 0.3204 -0.7734 -0.5469
vn -0.2161 0.9212 -0.3235
vn -0.3235 -0.9212 -0.2161
vn -0.5936 -0.7002 -0.3966
vn -0.7703 0.3764 -0.5147
vn -0.7703 -0.3764 -0.5147
vn -0.8315 0.0000 -0.5556
vn -0.3816 0.9212 -0.0759
vn -0.9087 -0.3764 -0.1807
vn -0.7002 0.7002 -0.1393
vn -0.7002 -0.7002 -0.1393
vn -0.5556 0.0000 -0.8315
vn -0.9087 0.3764 -0.1807
vn -1.0000 0.0000 -0.0000
vn 0.0000 0.9872 0.1597
vn -0.9808 0.0000 -0.1951
vn -0.7071 0.7071 -0.0000
vn 0.3235 0.9212 0.2161
vn -0.0980 -0.9950 -0.0195
vn -0.3827 -0.9239 -0.0000
vn -0.7071 -0.7071 -0.0000
vn -0.5147 0.3764 -0.7703
vn -0.0831 0.9950 -0.0555
vn -0.3966 -0.7002 -0.5936
vn -0.5147 -0.3764 -0.7703
vn -0.3966 0.7002 -0.5936
vn -0.1951 -0.0000 -0.9808
vn -0.2161 -0.9212 -0.3235
vn -0.0555 0.9950 -0.0831
vn 0.0980 0.9952 -0.0000
vn -0.0831 -0.9950 -0.0555
vn -0.0195 -0.9950 -0.0980
vn -0.1807 -0.3764 -0.9087
vn -0.0759 -0.9212 -0.3816
vn -0.0555 -0.9950 -0.0831
vn -0.0195 0.9950 -0.0980
vn 0.7703 0.3764 -0.5147
vn 0.0000 -0.8372 -0.5469
vn -0.0759 0.9212 -0.3816
vn 0.0000 0.0000 1.0000
vn 0.3966 0.7002 -0.5936
vn 0.7734 -0.3204 -0.5469
vn 0.5920 0.5920 -0.5469
vn 0.5920 -0.5920 -0.5469
vn 0.7734 0.3204 -0.5469
vn 0.5936 0.7002 0.3966
vn 0.8372 0.0000 -0.5469
vn 0.3204 0.7734 -0.5469
vn 0.0831 0.9950 0.0555
vn 0.0980 -0.9950 0.0195
vn 0.2161 0.9212 0.3235
vn 0.7703 -0.3764 0.5147
vn 0.5147 0.3764 0.7703
vn 0.3235 -0.9212 0.2161
vn 0.3966 0.7002 0.5936
vn 0.1951 0.0000 0.9808
vn 0.3966 -0.7002 0.5936
vn 0.0555 0.9950 0.0831
vn 0.0759 0.9212 0.3816
vn 0.5147 -0.3764 0.7703
vn 0.0831 -0.9950 0.0555
vn 0.2161 -0.9212 0.3235
vn 0.1807 0.3764 0.9087
vn 0.1807 -0.3764 0.9087
vn 0.1393 0.7002 0.7002
vn -0.1951 0.0000 0.9808
vn 0.1393 -0.7002 0.7002
vn -0.0759 0.9212 0.3816
vn 0.0555 -0.9950 0.0831
vn 0.0759 -0.9212 0.3816
vn -0.1807 0.3764 0.9087
vn 0.0195 0.9950 0.0980
vn -0.1807 -0.3764 0.9087
vn -0.1393 0.7002 0.7002
vn -0.5556 0.0000 0.8315
vn -0.1393 -0.7002 0.7002
vn 0.0195 -0.9950 0.0980
vn -0.2161 0.9212 0.3235
vn -0.0759 -0.9212 0.3816
vn -0.5147 0.3764 0.7703
vn -0.0195 0.9950 0.0980
vn -0.3966 0.7002 0.5936
vn -0.8315 0.0000 0.5556
vn -0.5147 -0.3764 0.7703
vn -0.0195 -0.9950 0.0980
vn -0.5936 0.7002 0.3966
vn -0.3235 0.9212 0.2161
vn -0.2161 -0.9212 0.3235
vn -0.7703 0.3764 0.5147
vn -0.3966 -0.7002 0.5936
vn -0.0555 0.9950 0.0831
vn -0.9808 0.0000 0.1951
vn -0.5936 -0.7002 0.3966
vn -0.7703 -0.3764 0.5147
vn -0.7002 -0.7002 0.1393
vn -0.7002 0.7002 0.1393
vn -0.3235 -0.9212 0.2161
vn -0.9087 0.3764 0.1807
vn -0.3816 0.9212 0.0759
vn -0.0831 0.9950 0.0555
vn -0.0555 -0.9950 0.0831
vn -0.5920 0.5920 -0.5469
vn -0.0980 -0.9950 0.0195
vn -0.3204 0.7734 -0.5469
vn -0.0980 0.9950 0.0195
vn -0.3204 -0.7734 -0.5469
vn -0.3816 -0.9212 0.0759
vn -0.0980 0.9952 0.0000
vn -0.5920 -0.5920 -0.5469
vn -0.8372 0.0000 -0.5469
vn -0.0831 -0.9950 0.0555
vn 0.7002 0.7002 0.1393
vn 0.3816 0.9212 0.0759
vn 0.0000 0.8372 -0.5469
vn 0.7002 -0.7002 0.1393
vn 0.9087 -0.3764 0.1807
vn 0.9808 0.0000 0.1951
vn 0.0195 0.9950 -0.0980
vn 0.9087 0.3764 0.1807
vn 0.5936 -0.7002 0.3966
vn 0.5556 0.0000 0.8315
vn -0.7734 -0.3204 -0.5469
vn -0.7734 0.3204 -0.5469
vn 0.7703 0.3764 0.5147
vn 0.3816 -0.9212 0.0759
vn 0.2161 0.9212 -0.3235
vn 0.0000 0.9999 -0.0152
vn -0.1807 0.3764 -0.9087
vn 0.0980 -0.9952 0.0000
vn -0.9087 -0.3764 0.1807
vn 0.0000 -0.9999 -0.0152
vn 0.0000 -0.9872 0.1597
vn 0.0759 -0.9212 -0.3816
vn 0.5147 0.3764 -0.7703
vn 0.1951 -0.0000 -0.9808
usemtl None
s off
f 65/1/1 2/2/1 3/3/1 66/4/1
f 8/5/2 2/2/2 1/6/2 7/7/2
f 74/8/3 73/9/3 14/10/3
f 19/11/4 11/12/4 10/13/4 18/14/4
f 69/15/5 5/16/5 6/17/5 70/18/5
f 9/19/6 3/3/6 2/2/6 8/5/6
f 13/20/7 6/17/7 5/16/7 12/21/7
f 20/22/8 12/21/8 11/12/8 19/11/8
f 10/13/9 4/23/9 3/3/9 9/19/9
f 24/24/10 16/25/10 15/26/10 23/27/10
f 39/28/11 15/26/11 7/7/11
f 12/21/12 5/16/12 72/29/12 11/12/12
f 27/30/13 19/11/13 18/14/13 26/31/13
f 21/32/14 13/20/14 12/21/14 20/22/14
f 22/33/15 14/10/15 13/20/15 21/32/15
f 29/34/16 21/32/16 20/22/16 28/35/16
f 28/35/17 20/22/17 19/11/17 27/30/17
f 25/36/18 17/37/18 16/25/18 24/24/18
f 35/38/19 27/30/19 26/31/19 34/39/19
f 30/40/20 22/33/20 21/32/20 29/34/20
f 34/39/21 26/31/21 25/36/21 33/41/21
f 39/42/22 23/27/22 15/26/22
f 74/43/23 14/10/23 22/33/23
f 32/44/24 24/24/24 23/27/24 31/45/24
f 37/46/25 29/34/25 28/35/25 36/47/25
f 36/47/26 28/35/26 27/30/26 35/38/26
f 33/41/27 25/36/27 24/24/27 32/44/27
f 35/38/28 34/39/28 172/48/28 173/49/28
f 38/50/29 30/40/29 29/34/29 37/46/29
f 34/39/30 33/41/30 171/51/30 172/48/30
f 74/52/31 22/33/31 30/40/31
f 39/53/32 31/45/32 23/27/32
f 32/44/33 31/45/33 169/54/33 170/55/33
f 36/47/34 35/38/34 173/49/34 174/56/34
f 33/41/35 32/44/35 170/55/35 171/51/35
f 44/57/36 45/58/36 182/59/36 181/60/36
f 58/61/37 50/62/37 49/63/37 57/64/37
f 42/65/38 43/66/38 180/67/38 179/68/38
f 37/46/39 36/47/39 174/56/39 175/69/39
f 142/70/40 94/71/40 86/72/40
f 57/64/41 49/63/41 48/73/41 56/74/41
f 77/75/42 184/76/42 47/77/42
f 106/78/43 98/79/43 97/80/43 105/81/43
f 74/82/44 30/40/44 38/50/44
f 39/83/45 48/73/45 40/84/45
f 40/84/46 41/85/46 178/86/46 177/87/46
f 38/50/47 37/46/47 175/69/47 176/88/47
f 55/89/48 47/77/48 46/90/48 54/91/48
f 176/88/49 175/69/49 84/92/49 85/93/49
f 82/94/34 90/95/34 91/96/34 83/97/34
f 47/77/42 74/98/42 77/75/42
f 65/1/50 57/64/50 56/74/50 64/99/50
f 63/100/51 55/89/51 54/91/51 62/101/51
f 62/101/52 54/91/52 53/102/52 61/103/52
f 59/104/53 51/105/53 50/62/53 58/61/53
f 61/103/54 53/102/54 52/106/54 60/107/54
f 60/107/55 52/106/55 51/105/55 59/104/55
f 49/63/56 41/85/56 40/84/56 48/73/56
f 53/102/57 45/58/57 44/57/57 52/106/57
f 50/62/58 42/65/58 41/85/58 49/63/58
f 54/91/59 46/90/59 45/58/59 53/102/59
f 68/108/60 60/107/60 59/104/60 67/109/60
f 51/105/61 43/66/61 42/65/61 50/62/61
f 43/66/62 44/57/62 181/60/62 180/67/62
f 184/76/63 77/110/63 176/88/63
f 52/106/64 44/57/64 43/66/64 51/105/64
f 41/85/65 42/65/65 179/68/65 178/86/65
f 103/111/66 95/112/66 94/71/66 102/113/66
f 74/98/67 47/77/67 55/89/67
f 183/114/68 46/90/68 47/77/68 184/76/68
f 45/58/69 46/90/69 183/114/69 182/59/69
f 67/109/70 59/104/70 58/61/70 66/4/70
f 39/115/71 56/74/71 48/73/71
f 70/18/72 62/101/72 61/103/72 69/15/72
f 69/15/73 61/103/73 60/107/73 68/108/73
f 66/4/74 58/61/74 57/64/74 65/1/74
f 72/29/75 68/108/75 67/109/75 4/23/75
f 71/116/76 63/100/76 62/101/76 70/18/76
f 39/117/77 64/99/77 56/74/77
f 76/118/78 169/54/78 31/45/78
f 74/119/79 55/89/79 63/100/79
f 74/120/80 71/116/80 73/9/80
f 5/16/81 69/15/81 68/108/81 72/29/81
f 73/9/82 71/116/82 70/18/82 6/17/82
f 74/121/83 63/100/83 71/116/83
f 39/122/84 1/6/84 64/99/84
f 26/31/85 18/14/85 17/37/85 25/36/85
f 75/123/78 86/72/78 78/124/78
f 184/76/86 176/88/86 85/93/86 157/125/86
f 156/126/68 157/125/68 167/127/68 166/128/68
f 65/1/87 64/99/87 1/6/87 2/2/87
f 155/129/69 156/126/69 166/130/69 165/131/69
f 168/132/88 158/133/88 93/134/88
f 17/37/89 9/19/89 8/5/89 16/25/89
f 154/135/36 155/129/36 165/136/36 164/137/36
f 174/56/90 173/49/90 82/94/90 83/97/90
f 79/138/91 80/139/91 171/51/91 170/55/91
f 175/69/92 174/56/92 83/97/92 84/92/92
f 172/48/93 171/51/93 80/139/93 81/140/93
f 104/141/94 96/142/94 95/112/94 103/111/94
f 173/49/95 172/48/95 81/140/95 82/94/95
f 169/54/96 78/124/96 79/138/96 170/55/96
f 142/143/97 102/113/97 94/71/97
f 168/144/98 93/134/98 101/145/98
f 111/146/99 103/111/99 102/113/99 110/147/99
f 107/148/100 99/149/100 98/79/100 106/78/100
f 113/150/101 105/81/101 104/141/101 112/151/101
f 109/152/102 101/145/102 100/153/102 108/154/102
f 112/151/103 104/141/103 103/111/103 111/146/103
f 122/155/104 114/156/104 113/150/104 121/157/104
f 116/158/105 108/154/105 107/148/105 115/159/105
f 142/160/106 110/147/106 102/113/106
f 119/161/107 111/146/107 110/147/107 118/162/107
f 115/159/108 107/148/108 106/78/108 114/156/108
f 168/163/109 101/145/109 109/152/109
f 117/164/110 109/152/110 108/154/110 116/158/110
f 121/157/111 113/150/111 112/151/111 120/165/111
f 123/166/112 115/159/112 114/156/112 122/155/112
f 120/165/113 112/151/113 111/146/113 119/161/113
f 130/167/114 122/155/114 121/157/114 129/168/114
f 124/169/115 116/158/115 115/159/115 123/166/115
f 127/170/116 119/161/116 118/162/116 126/171/116
f 168/172/117 109/152/117 117/164/117
f 125/173/118 117/164/118 116/158/118 124/169/118
f 129/168/119 121/157/119 120/165/119 128/174/119
f 142/175/120 118/162/120 110/147/120
f 131/176/121 123/166/121 122/155/121 130/167/121
f 128/174/122 120/165/122 119/161/122 127/170/122
f 138/177/123 130/167/123 129/168/123 137/178/123
f 132/179/124 124/169/124 123/166/124 131/176/124
f 168/180/125 117/164/125 125/173/125
f 135/181/126 127/170/126 126/171/126 134/182/126
f 133/183/127 125/173/127 124/169/127 132/179/127
f 137/178/128 129/168/128 128/174/128 136/184/128
f 142/185/129 126/171/129 118/162/129
f 136/184/130 128/174/130 127/170/130 135/181/130
f 147/186/131 138/177/131 137/178/131 146/187/131
f 139/188/132 131/176/132 130/167/132 138/177/132
f 168/189/133 125/173/133 133/183/133
f 145/190/134 136/184/134 135/181/134 144/191/134
f 144/191/135 135/181/135 134/182/135 143/192/135
f 141/193/136 133/183/136 132/179/136 140/194/136
f 146/187/137 137/178/137 136/184/137 145/190/137
f 140/194/138 132/179/138 131/176/138 139/188/138
f 142/195/139 134/182/139 126/171/139
f 164/196/140 147/186/140 146/187/140 163/197/140
f 149/198/141 140/194/141 139/188/141 148/199/141
f 148/199/142 139/188/142 138/177/142 147/186/142
f 166/130/143 149/198/143 148/199/143 165/131/143
f 162/200/144 145/190/144 144/191/144 161/201/144
f 159/202/145 141/193/145 140/194/145 149/198/145
f 163/203/146 146/187/146 145/190/146 162/204/146
f 161/205/147 144/191/147 143/192/147 160/206/147
f 142/207/148 143/192/148 134/182/148
f 168/208/149 133/183/149 141/193/149
f 152/209/150 151/210/150 178/86/150 179/68/150
f 168/211/151 159/202/151 167/127/151
f 151/210/152 150/212/152 177/87/152 178/86/152
f 142/213/153 160/214/153 143/192/153
f 157/125/154 156/126/154 183/114/154 184/76/154
f 167/127/155 159/202/155 149/198/155 166/128/155
f 160/206/156 75/215/156 150/212/156
f 158/216/42 167/217/42 157/125/42
f 156/126/157 155/129/157 182/59/157 183/114/157
f 154/135/158 153/218/158 180/67/158 181/60/158
f 168/219/159 141/193/159 159/202/159
f 96/142/160 88/220/160 87/221/160 95/112/160
f 95/112/161 87/221/161 86/72/161 94/71/161
f 153/218/62 154/135/62 164/196/62 163/197/62
f 75/123/88 142/222/88 86/72/88
f 150/212/162 78/124/162 169/54/162 177/87/162
f 84/92/47 92/223/47 93/134/47 85/93/47
f 152/209/38 153/218/38 163/203/38 162/204/38
f 100/153/163 92/223/163 91/96/163 99/149/163
f 79/138/35 87/221/35 88/220/35 80/139/35
f 80/139/30 88/220/30 89/224/30 81/140/30
f 151/210/65 152/209/65 162/200/65 161/201/65
f 99/149/164 91/96/164 90/95/164 98/79/164
f 78/124/33 86/72/33 87/221/33 79/138/33
f 150/212/46 151/210/46 161/205/46 160/206/46
f 98/79/165 90/95/165 89/224/165 97/80/165
f 39/225/166 7/7/166 1/6/166
f 142/226/88 75/215/88 160/206/88
f 97/80/167 89/224/167 88/220/167 96/142/167
f 177/87/156 76/227/156 40/84/156
f 158/216/88 168/228/88 167/217/88
f 108/154/168 100/153/168 99/149/168 107/148/168
f 39/229/156 40/84/156 76/227/156
f 114/156/169 106/78/169 105/81/169 113/150/169
f 155/129/170 154/135/170 181/60/170 182/59/170
f 153/218/171 152/209/171 179/68/171 180/67/171
f 105/81/172 97/80/172 96/142/172 104/141/172
f 101/145/173 93/134/173 92/223/173 100/153/173
f 16/25/174 8/5/174 7/7/174 15/26/174
f 75/123/175 78/124/175 150/212/175
f 66/4/176 3/3/176 4/23/176 67/109/176
f 83/97/39 91/96/39 92/223/39 84/92/39
f 176/88/177 77/110/177 38/50/177
f 165/136/178 148/199/178 147/186/178 164/137/178
f 158/133/177 85/93/177 93/134/177
f 158/216/179 157/125/179 85/93/179
f 81/140/28 89/224/28 90/95/28 82/94/28
f 74/230/177 38/50/177 77/110/177
f 169/54/180 76/227/180 177/87/180
f 14/10/181 73/9/181 6/17/181 13/20/181
f 18/14/182 10/13/182 9/19/182 17/37/182
f 31/45/78 39/53/78 76/118/78
f 11/12/183 72/29/183 4/23/183 10/13/183
