<?xml version="1.0" encoding="utf-8"?><svg version="1.1" id="Layer_1" xmlns="http://www.w3.org/2000/svg" xmlns:xlink="http://www.w3.org/1999/xlink" x="0px" y="0px" viewBox="0 0 122.88 108.05" style="enable-background:new 0 0 122.88 108.05" xml:space="preserve"><style type="text/css">.st0{fill-rule:evenodd;clip-rule:evenodd;}</style><g><path class="st0" d="M1.99,34.01c-1.14,0.69-2.18-0.62-1.96-1.47C5.15,19.59,15.9,4.64,28.08,0.82c4.7-1.47,4.33-1.08,7.49,2.08 l85.32,85.32c7.77,9.06-9.07,25.69-19.41,17.72L69.32,65.76L48.4,78.9c-1.83,1.29-3.8-0.26-2.08-2.08l19.54-19.54l-1.63-1.63 L44.29,75.6c-0.63,0.63-1.67,0.62-2.32-0.02c-0.65-0.65-0.66-1.69-0.02-2.32l19.95-19.95l-2.64-2.64L39.3,70.62 c-0.63,0.63-1.67,0.62-2.32-0.02c-0.65-0.65-0.66-1.69-0.02-2.32l19.95-19.95l-2.26-2.26L34.7,66.01 c-0.63,0.63-1.67,0.62-2.32-0.02c-0.65-0.65-0.66-1.69-0.02-2.32L52.3,43.72l-2.26-2.26L30.09,61.41 c-0.63,0.63-1.67,0.62-2.32-0.02c-0.65-0.65-0.66-1.69-0.02-2.32L47.7,39.12l-2.26-2.26L25.49,56.8c-0.63,0.63-1.67,0.62-2.32-0.02 c-0.65-0.65-0.66-1.69-0.02-2.32l19.95-19.95l-2.26-2.26L20.88,52.19c-0.63,0.63-1.67,0.62-2.32-0.02 c-0.65-0.65-0.66-1.69-0.02-2.32L38.48,29.9l-2.26-2.26L16.27,47.59c-0.63,0.63-1.67,0.62-2.32-0.02 c-0.65-0.65-0.66-1.69-0.02-2.32L33.88,25.3l-2.26-2.26L11.67,42.98c-0.63,0.63-1.67,0.62-2.32-0.02 c-0.65-0.65-0.66-1.69-0.02-2.32l19.95-19.95l-2.64-2.64L6.68,38c-0.63,0.63-1.67,0.62-2.32-0.02c-0.65-0.65-0.66-1.69-0.02-2.32 l19.95-19.95l-2-2L1.99,34.01L1.99,34.01z"/></g></svg>