<?xml version="1.0" encoding="UTF-8" standalone="no"?>
<svg
   xmlns:dc="http://purl.org/dc/elements/1.1/"
   xmlns:cc="http://creativecommons.org/ns#"
   xmlns:rdf="http://www.w3.org/1999/02/22-rdf-syntax-ns#"
   xmlns:svg="http://www.w3.org/2000/svg"
   xmlns="http://www.w3.org/2000/svg"
   viewBox="0 0 682.66669 682.66669"
   height="682.66669"
   width="682.66669"
   id="svg4518"
   version="1.1">
  <metadata
     id="metadata4524">
    <rdf:RDF>
      <cc:Work
         rdf:about="">
        <dc:format>image/svg+xml</dc:format>
        <dc:type
           rdf:resource="http://purl.org/dc/dcmitype/StillImage" />
        <dc:title></dc:title>
      </cc:Work>
    </rdf:RDF>
  </metadata>
  <defs
     id="defs4522" />
  <path
     id="path4528"
     d="m 433.42501,650.05955 4.16642,-91.1401 -8.08216,-81.21723 -21.05568,-88.04365 -33.46548,-78.68515 -23.68004,-50.71174 -28.765,-39.17847 1.66667,8.08747 -3.46918,12.87135 -5.35548,-1.49058 10.20472,11.86418 10.73164,12.74521 -20,0.1123 5.66667,8.07058 15.65995,21.71582 -19.46668,-3.60456 19.4734,32.16386 -22.34553,-6.99156 11.94958,24.76559 10.39595,22.60046 -3.17282,4.06621 -12.2968,-4.59208 -9.52777,-4.18831 4.294,15.59208 9.03003,36.06167 -29.14565,-28.44469 -10.96308,-26.9262 -3.52564,-21.9213 -6.99214,16.741 -6.13143,-36.51169 2.57499,-26.50896 -11.61259,6.6147 7.12871,-35.44778 3.46918,-8.45055 -4.50734,0.66589 -7.2725,-4.97528 13.27584,-38.97685 9.38323,-21.34796 -19.60852,24.6163 -21.22337,27.33334 -4.88798,-5 -2.95502,-5 -0.3245,6 -3.522,20 -10.52728,-11.30842 -2.02395,-3.97509 -6.52658,31.61244 -16.35511,-22.9956 -10.20093,28.9662 -8.20216,24.36714 -11.99048,-19.33334 -11.77698,34 -9.0893,-35.33333 3.58604,-32.98493 8.24737,-22.0979 30.65055,-32.83961 11.08917,-20.00032 27.68819,1.35761 42.95536,-3.21565 13.67743,-3.65702 -8.22043,-9.3476 -31.53901,1.83234 5.5315,-14.94031 -30.46692,6.74199 9.3283,-19.51572 -27.27702,13.83178 2.507,-22.39085 -46.5516,1.75851 9.2604,-12.71797 -9.62716,-13.814364 22.20136,-5.33333 31.99159,-5.28681 41.3435,6.687344 34.86275,22.86563 10.72751,14.17447 2.58735,1.55937 -1.55574,-19.33333 1.88822,-27.668381 12.59666,-21.251158 39.90819,-17.706084 31.4336,-7.384433 22.25766,-7.980744 -5.64083,14.458498 -6.90172,15.297091 6.04789,8.509022 4.65787,9.653146 -10.8056,4.656039 -13.35393,4.643777 8.41386,10.519483 -27.12625,9.045224 -6.18949,1.13729 3.24285,5.7144 -12.60983,5.59014 -17.89576,7.84055 -15.19757,13.2213 15.14003,-5.98444 47.00926,-11.36954 27.33334,3.57476 24.26667,9.57217 21.886,15.55822 17,13.79238 0.0784,9.10944 -31.37478,-9.44684 -7.50144,-5.76798 1.09692,8.33334 -1.8059,13 -23.01379,-15.08616 -12.28763,-9.91755 -4.25845,8.69617 -8.43047,6.7633 -10.61123,-12.12116 -11.62237,-3.52134 -30.0886,5.90428 30.36788,7.48332 18.00335,7.74144 28.66666,13.32302 35.76915,53.47848 -4.68212,51.2562 -9.09865,-18 -8.779,-21.71077 -6.00866,9.0441 -6.04826,-11.39642 -15.06038,-27.93543 -9.11589,10.65349 -9.25188,-13.53268 -11.71448,-21.78896 -4.37795,-6.66667 -3.29458,13.33334 -8.881,-11.33334 -11.23903,-14.33333 -16.40476,-1.29923 0.74516,4.5702 27.148,22.90608 27.08582,34.2558 22.99326,37.15049 20.95312,44.09897 27.41316,43.53324 17.37954,45.63393 17.72946,52.35892 13.22559,92.33044 15.13448,93.639 z"
     style="fill:#000000;stroke-width:1.33333337" />
</svg>
